<svg width="30" height="30" viewBox="0 0 30 30" fill="none" xmlns="http://www.w3.org/2000/svg">
<path d="M24.3755 0C25.925 0 27.2498 0.55013 28.3501 1.65039C29.4504 2.75065 30.0005 4.07552 30.0005 5.625V24.375C30.0005 25.9245 29.4504 27.2493 28.3501 28.3496C27.2498 29.4499 25.925 30 24.3755 30H20.7036V18.3789H24.5903L25.1763 13.8477H20.7036V10.957C20.7036 10.2279 20.8566 9.68099 21.1626 9.31641C21.4686 8.95182 22.0643 8.76953 22.9497 8.76953L25.3325 8.75V4.70703C24.5122 4.58984 23.3534 4.53125 21.856 4.53125C20.0851 4.53125 18.6691 5.05208 17.6079 6.09375C16.5467 7.13542 16.0161 8.60677 16.0161 10.5078V13.8477H12.1099V18.3789H16.0161V30H5.62549C4.07601 30 2.75114 29.4499 1.65088 28.3496C0.550619 27.2493 0.000488281 25.9245 0.000488281 24.375V5.625C0.000488281 4.07552 0.550619 2.75065 1.65088 1.65039C2.75114 0.55013 4.07601 0 5.62549 0H24.3755Z" fill="white"/>
</svg>
