<svg width="16" height="16" viewBox="0 0 16 16" fill="none" xmlns="http://www.w3.org/2000/svg">
<path d="M2.58533 0.400709C2.3023 0.136982 1.92796 -0.00659191 1.54116 0.000232607C1.15437 0.00705712 0.785326 0.163748 0.511779 0.437294C0.238233 0.710841 0.0815419 1.07989 0.0747174 1.46668C0.0678929 1.85347 0.211467 2.22781 0.475194 2.51084L5.88987 7.92551L0.475194 13.3402C0.328506 13.4769 0.210852 13.6417 0.12925 13.8248C0.0476477 14.008 0.00376938 14.2057 0.000232356 14.4062C-0.00330467 14.6066 0.0335721 14.8058 0.108663 14.9917C0.183754 15.1776 0.29552 15.3464 0.437295 15.4882C0.579069 15.63 0.747947 15.7418 0.933853 15.8169C1.11976 15.8919 1.31889 15.9288 1.51936 15.9253C1.71982 15.9217 1.91753 15.8779 2.10067 15.7963C2.28381 15.7147 2.44864 15.597 2.58533 15.4503L8 10.0356L13.4147 15.4503C13.5514 15.597 13.7162 15.7147 13.8993 15.7963C14.0825 15.8779 14.2802 15.9217 14.4806 15.9253C14.6811 15.9288 14.8802 15.8919 15.0661 15.8169C15.2521 15.7418 15.4209 15.63 15.5627 15.4882C15.7045 15.3464 15.8162 15.1776 15.8913 14.9917C15.9664 14.8058 16.0033 14.6066 15.9998 14.4062C15.9962 14.2057 15.9524 14.008 15.8707 13.8248C15.7891 13.6417 15.6715 13.4769 15.5248 13.3402L10.1101 7.92551L15.5248 2.51084C15.7885 2.22781 15.9321 1.85347 15.9253 1.46668C15.9185 1.07989 15.7618 0.710841 15.4882 0.437294C15.2147 0.163748 14.8456 0.00705712 14.4588 0.000232607C14.072 -0.00659191 13.6977 0.136982 13.4147 0.400709L8 5.81538L2.58533 0.400709Z" fill="#F24E1E"/>
</svg>
