<svg width="25" height="25" viewBox="0 0 25 25" fill="none" xmlns="http://www.w3.org/2000/svg">
<path fill-rule="evenodd" clip-rule="evenodd" d="M1.30212 2.60425C1.30212 2.17278 1.6519 1.823 2.08337 1.823H10.9375C11.369 1.823 11.7188 2.17278 11.7188 2.60425V10.9376C11.7188 11.3691 11.369 11.7188 10.9375 11.7188H2.08337C1.6519 11.7188 1.30212 11.3691 1.30212 10.9376V2.60425ZM2.86462 3.3855V10.1563H10.1563V3.3855H2.86462Z" fill="#F8F8F8"/>
<path fill-rule="evenodd" clip-rule="evenodd" d="M1.30212 14.0625C1.30212 13.631 1.6519 13.2812 2.08337 13.2812H10.9375C11.369 13.2812 11.7188 13.631 11.7188 14.0625V22.3958C11.7188 22.8273 11.369 23.1771 10.9375 23.1771H2.08337C1.6519 23.1771 1.30212 22.8273 1.30212 22.3958V14.0625ZM2.86462 14.8438V21.6146H10.1563V14.8438H2.86462Z" fill="#F8F8F8"/>
<path fill-rule="evenodd" clip-rule="evenodd" d="M13.2812 2.60425C13.2812 2.17278 13.631 1.823 14.0625 1.823H22.9167C23.3481 1.823 23.6979 2.17278 23.6979 2.60425V10.9376C23.6979 11.3691 23.3481 11.7188 22.9167 11.7188H14.0625C13.631 11.7188 13.2812 11.3691 13.2812 10.9376V2.60425ZM14.8438 3.3855V10.1563H22.1354V3.3855H14.8438Z" fill="#F8F8F8"/>
<path fill-rule="evenodd" clip-rule="evenodd" d="M13.2812 22.396C13.2812 22.8275 13.631 23.1772 14.0625 23.1772H16.6667C17.0981 23.1772 17.4479 22.8275 17.4479 22.396C17.4479 21.9645 17.0981 21.6147 16.6667 21.6147H14.8438V14.8439H22.1354V21.6147H20.8333C20.4019 21.6147 20.0521 21.9645 20.0521 22.396C20.0521 22.8275 20.4019 23.1772 20.8333 23.1772H22.9167C23.3481 23.1772 23.6979 22.8275 23.6979 22.396V14.0627C23.6979 13.6312 23.3481 13.2814 22.9167 13.2814H14.0625C13.631 13.2814 13.2812 13.6312 13.2812 14.0627V22.396Z" fill="#F8F8F8"/>
</svg>
