<svg width="25" height="25" viewBox="0 0 25 25" fill="none" xmlns="http://www.w3.org/2000/svg">
<path fill-rule="evenodd" clip-rule="evenodd" d="M6.25004 2.8645C5.24327 2.8645 4.42712 3.68065 4.42712 4.68742C4.42712 5.69419 5.24327 6.51034 6.25004 6.51034C7.25681 6.51034 8.07296 5.69419 8.07296 4.68742C8.07296 3.68065 7.25681 2.8645 6.25004 2.8645ZM2.86462 4.68742C2.86462 2.8177 4.38033 1.302 6.25004 1.302C8.11975 1.302 9.63546 2.8177 9.63546 4.68742C9.63546 6.55713 8.11975 8.07284 6.25004 8.07284C4.38033 8.07284 2.86462 6.55713 2.86462 4.68742Z" fill="#F8F8F8"/>
<path fill-rule="evenodd" clip-rule="evenodd" d="M6.25004 10.677C5.24327 10.677 4.42712 11.4931 4.42712 12.4999C4.42712 13.5067 5.24327 14.3228 6.25004 14.3228C7.25681 14.3228 8.07296 13.5067 8.07296 12.4999C8.07296 11.4931 7.25681 10.677 6.25004 10.677ZM2.86462 12.4999C2.86462 10.6302 4.38033 9.1145 6.25004 9.1145C8.11975 9.1145 9.63546 10.6302 9.63546 12.4999C9.63546 14.3696 8.11975 15.8853 6.25004 15.8853C4.38033 15.8853 2.86462 14.3696 2.86462 12.4999Z" fill="#F8F8F8"/>
<path fill-rule="evenodd" clip-rule="evenodd" d="M6.25004 18.4895C5.24327 18.4895 4.42712 19.3056 4.42712 20.3124C4.42712 21.3192 5.24327 22.1353 6.25004 22.1353C7.13104 22.1353 7.86765 21.5096 8.03648 20.6778C8.06031 20.5604 8.07296 20.4383 8.07296 20.3124C8.07296 19.8809 8.42274 19.5312 8.85421 19.5312C9.28568 19.5312 9.63546 19.8809 9.63546 20.3124C9.63546 20.5433 9.61224 20.7695 9.56775 20.9887C9.25401 22.5343 7.88879 23.6978 6.25004 23.6978C4.38033 23.6978 2.86462 22.1821 2.86462 20.3124C2.86462 18.4427 4.38033 16.927 6.25004 16.927C6.68151 16.927 7.03129 17.2768 7.03129 17.7083C7.03129 18.1397 6.68151 18.4895 6.25004 18.4895Z" fill="#F8F8F8"/>
<path fill-rule="evenodd" clip-rule="evenodd" d="M11.198 4.6875C11.198 4.25603 11.5478 3.90625 11.9792 3.90625H21.3542C21.7857 3.90625 22.1355 4.25603 22.1355 4.6875C22.1355 5.11897 21.7857 5.46875 21.3542 5.46875H11.9792C11.5478 5.46875 11.198 5.11897 11.198 4.6875Z" fill="#F8F8F8"/>
<path fill-rule="evenodd" clip-rule="evenodd" d="M11.198 12.5C11.198 12.0685 11.5478 11.7188 11.9792 11.7188H21.3542C21.7857 11.7188 22.1355 12.0685 22.1355 12.5C22.1355 12.9315 21.7857 13.2812 21.3542 13.2812H11.9792C11.5478 13.2812 11.198 12.9315 11.198 12.5Z" fill="#F8F8F8"/>
<path fill-rule="evenodd" clip-rule="evenodd" d="M11.198 20.3125C11.198 19.881 11.5478 19.5312 11.9792 19.5312H21.3542C21.7857 19.5312 22.1355 19.881 22.1355 20.3125C22.1355 20.744 21.7857 21.0938 21.3542 21.0938H11.9792C11.5478 21.0938 11.198 20.744 11.198 20.3125Z" fill="#F8F8F8"/>
</svg>
