<svg width="19" height="24" viewBox="0 0 19 24" fill="none" xmlns="http://www.w3.org/2000/svg">
<path d="M14.3571 11.9999H4.64286L4.64273 5.88894C4.64273 3.18885 6.81735 1 9.49988 1C12.1824 1 14.357 3.18885 14.357 5.88894M9.5 18.1111C10.5059 18.1111 11.3214 17.2902 11.3214 16.2777C11.3214 15.2652 10.5059 14.4444 9.5 14.4444C8.49405 14.4444 7.67857 15.2652 7.67857 16.2777C7.67857 17.2902 8.49405 18.1111 9.5 18.1111ZM9.5 18.1111V20.5555M1 11.9999H18V21.1666C18 22.1792 17.1845 23 16.1786 23H2.82143C1.81548 23 1 22.1792 1 21.1666V11.9999Z" stroke="#F8F8F8" stroke-width="2" stroke-linecap="round"/>
</svg>
