<svg width="16" height="16" viewBox="0 0 16 16" fill="none" xmlns="http://www.w3.org/2000/svg">
<path d="M14.9773 0.256719C15.44 0.517633 15.7808 0.952898 15.9248 1.46679C16.0689 1.98069 16.0043 2.53114 15.7453 2.9971L9.16809 14.8228C9.00152 15.1224 8.77048 15.3807 8.49191 15.5787C8.21334 15.7767 7.89429 15.9094 7.55815 15.9672C7.22201 16.025 6.87729 16.0063 6.54925 15.9125C6.22122 15.8187 5.91819 15.6522 5.66236 15.4252L0.67776 11.0042C0.279782 10.6511 0.0374158 10.1533 0.0039806 9.62028C-0.0294546 9.08726 0.148779 8.5627 0.499473 8.162C0.850167 7.76129 1.34459 7.51726 1.87398 7.4836C2.40338 7.44993 2.92437 7.62939 3.32235 7.98249L6.71436 10.9916L12.255 1.02999C12.3833 0.799231 12.5555 0.596183 12.7617 0.432437C12.968 0.268691 13.2043 0.147454 13.457 0.0756485C13.7098 0.0038432 13.9742 -0.017124 14.235 0.0139442C14.4959 0.0450124 14.7481 0.127508 14.9773 0.256719Z" fill="#008237"/>
</svg>
