<svg width="9" height="6" viewBox="0 0 9 6" fill="none" xmlns="http://www.w3.org/2000/svg">
<path fill-rule="evenodd" clip-rule="evenodd" d="M0.21967 0.71967C-0.0732233 1.01256 -0.0732233 1.48744 0.21967 1.78033L3.71967 5.28033C4.01256 5.57322 4.48744 5.57322 4.78033 5.28033L6.53033 3.53033C6.82322 3.23744 6.82322 2.76256 6.53033 2.46967C6.23744 2.17678 5.76256 2.17678 5.46967 2.46967L4.25 3.68934L1.28033 0.71967C0.987437 0.426777 0.512563 0.426777 0.21967 0.71967ZM6.78217 2.21783C7.07506 2.51072 7.54994 2.51072 7.84283 2.21783L8.28033 1.78033C8.57322 1.48744 8.57322 1.01256 8.28033 0.71967C7.98744 0.426777 7.51256 0.426777 7.21967 0.71967L6.78217 1.15717C6.48928 1.45006 6.48928 1.92494 6.78217 2.21783Z" fill="#F3ECEC"/>
</svg>
