<svg width="48" height="83" viewBox="0 0 48 83" fill="none" xmlns="http://www.w3.org/2000/svg">
<path d="M45.3178 9.87868L20.7003 35.9376C18.8124 37.9361 17.8684 38.9353 17.5293 40.0815C17.2554 41.0073 17.2554 41.9927 17.5293 42.9185C17.8684 44.0647 18.8124 45.0639 20.7003 47.0624L45.3178 73.1213C45.6846 73.5095 45.868 73.7037 46.0091 73.8834C47.4482 75.7163 47.4303 78.3003 45.966 80.1131C45.8224 80.2908 45.6363 80.4824 45.2642 80.8655L45.2642 80.8656C44.8672 81.2743 44.6687 81.4787 44.4863 81.6336C42.6194 83.2201 39.8779 83.2201 38.011 81.6336C37.8286 81.4787 37.6301 81.2743 37.2331 80.8655L4.48104 47.1434C2.51685 45.121 1.53475 44.1098 1.18306 42.9437C0.899123 42.0022 0.899122 40.9978 1.18306 40.0563C1.53475 38.8902 2.51685 37.879 4.48104 35.8566L37.2331 2.13451C37.6301 1.72571 37.8286 1.52132 38.011 1.36636C39.8779 -0.220059 42.6194 -0.22006 44.4863 1.36636C44.6687 1.52131 44.8672 1.72569 45.2642 2.13444L45.2642 2.13451L45.2643 2.13459C45.6363 2.51765 45.8224 2.70919 45.9659 2.88692C47.4303 4.69971 47.4482 7.28374 46.0091 9.11663C45.868 9.29634 45.6846 9.49045 45.3178 9.87868Z" fill="#008237" fill-opacity="0.6"/>
</svg>
