<svg width="26" height="26" viewBox="0 0 26 26" fill="none" xmlns="http://www.w3.org/2000/svg">
<path d="M13 11.4394C15.1539 11.4394 16.9 9.69331 16.9 7.5394C16.9 5.38549 15.1539 3.6394 13 3.6394C10.8461 3.6394 9.1 5.38549 9.1 7.5394C9.1 9.69331 10.8461 11.4394 13 11.4394Z" fill="#008237"/>
<path d="M8.47559 9.01369C8.47559 10.6355 7.16089 11.9502 5.53912 11.9502C3.91735 11.9502 2.60265 10.6355 2.60265 9.01369C2.60265 7.39192 3.91735 6.07722 5.53912 6.07722C7.16089 6.07722 8.47559 7.39192 8.47559 9.01369Z" fill="#008237"/>
<path d="M12.9998 12.6002C10.1073 12.6002 8.37257 13.6768 7.3931 15.1083C6.44646 16.4919 6.29566 19.3768 6.29265 20.2543C6.28963 21.1367 6.9952 21.7126 7.71858 21.7126H18.2809C19.0043 21.7126 19.7099 21.1367 19.7069 20.2543C19.7038 19.3768 19.5531 16.4919 18.6064 15.1083C17.627 13.6768 15.8923 12.6002 12.9998 12.6002Z" fill="#008237"/>
<path d="M7.05787 13.4499C6.72008 13.7707 6.42778 14.119 6.17636 14.4864C5.02413 16.1704 4.84059 19.3997 4.83693 20.4678C4.83619 20.6824 4.8699 20.8821 4.93135 21.0644H1.17763C0.580211 21.0644 -0.00249203 20.5887 8.01589e-06 19.86C0.00249426 19.1354 0.12703 16.5265 0.908826 15.3839C1.71773 14.2017 3.15034 13.3125 5.53915 13.3125C6.09593 13.3125 6.60077 13.3608 7.05787 13.4499Z" fill="#008237"/>
<path d="M21.0699 21.0644C21.1313 20.8821 21.165 20.6824 21.1643 20.4678C21.1606 19.3997 20.9771 16.1704 19.8249 14.4864C19.5734 14.1188 19.281 13.7705 18.9431 13.4496C19.3998 13.3607 19.9042 13.3125 20.4604 13.3125C22.8492 13.3125 24.2818 14.2017 25.0907 15.3839C25.8725 16.5265 25.997 19.1354 25.9995 19.86C26.002 20.5887 25.4193 21.0644 24.8219 21.0644H21.0699Z" fill="#008237"/>
<path d="M23.3968 9.01369C23.3968 10.6355 22.0821 11.9502 20.4603 11.9502C18.8386 11.9502 17.5239 10.6355 17.5239 9.01369C17.5239 7.39192 18.8386 6.07722 20.4603 6.07722C22.0821 6.07722 23.3968 7.39192 23.3968 9.01369Z" fill="#008237"/>
</svg>
