<svg width="59" height="60" viewBox="0 0 59 60" fill="none" xmlns="http://www.w3.org/2000/svg">
<path d="M29.6159 0.794922C21.872 0.794922 14.4383 3.8738 8.96688 9.34888C3.48981 14.8261 0.412162 22.2543 0.410645 30.0002C0.410645 37.7428 3.49089 45.1765 8.96688 50.6516C14.4383 56.1266 21.872 59.2055 29.6159 59.2055C37.3599 59.2055 44.7936 56.1266 50.265 50.6516C55.741 45.1765 58.8212 37.7428 58.8212 30.0002C58.8212 22.2576 55.741 14.824 50.265 9.34888C44.7936 3.8738 37.3599 0.794922 29.6159 0.794922Z" fill="url(#paint0_linear_80_8141)"/>
<path d="M13.6306 29.6916C22.1458 25.9825 27.8226 23.537 30.661 22.3556C38.7746 18.9819 40.4584 18.396 41.5582 18.3761C41.8001 18.3723 42.3385 18.432 42.6899 18.7161C42.982 18.9557 43.0641 19.2797 43.1052 19.5072C43.1417 19.7344 43.1919 20.2524 43.1508 20.6567C42.7127 25.2748 40.8098 36.4814 39.8424 41.6539C39.4363 43.8425 38.6286 44.5763 37.8482 44.6479C36.1507 44.804 34.8638 43.5272 33.221 42.4507C30.6519 40.7654 29.2007 39.7168 26.7046 38.0726C23.8206 36.1724 25.6915 35.1279 27.3343 33.4212C27.7633 32.9745 35.238 26.1774 35.3795 25.5609C35.3977 25.4838 35.416 25.1963 35.2426 25.0448C35.0737 24.8928 34.8227 24.9448 34.6402 24.9859C34.3801 25.0443 30.2777 27.7586 22.3192 33.1282C21.1556 33.9287 20.1014 34.3188 19.1523 34.2983C18.1118 34.2759 16.104 33.7087 14.6118 33.2241C12.7864 32.6295 11.3307 32.3151 11.4585 31.3052C11.5224 30.7795 12.248 30.2415 13.6306 29.6916Z" fill="white"/>
<defs>
<linearGradient id="paint0_linear_80_8141" x1="2920.94" y1="0.794922" x2="2920.94" y2="5841.85" gradientUnits="userSpaceOnUse">
<stop stop-color="#2AABEE"/>
<stop offset="1" stop-color="#229ED9"/>
</linearGradient>
</defs>
</svg>
