<svg width="180" height="148" viewBox="0 0 180 148" fill="none" xmlns="http://www.w3.org/2000/svg">
<path fill-rule="evenodd" clip-rule="evenodd" d="M90.4304 56.0512C88.6135 58.2921 83.4314 65.5269 82.8408 66.4637C81.7038 68.2586 81.6033 69.1284 81.5699 69.7079C81.5369 70.2768 81.5369 71.3023 82.4618 72.1386C84.0113 73.521 86.1843 73.2977 88.1127 73.2977H103.996C104.675 73.2977 104.876 73.0967 105.244 72.6065C106.515 70.6665 107.083 68.5595 107.083 66.6753C107.083 62.6395 104.464 57.5563 97.8322 55.2595L97.0849 56.3297C102.346 58.8264 104.52 62.093 104.52 66.6637C104.553 67.8902 104.229 69.2167 103.427 70.4432H87.9783C87.0534 70.4432 86.9194 69.3953 87.2538 68.8041C88.5782 66.4466 90.0563 64.1787 91.6785 62.0153C93.2391 59.9307 94.7769 57.9795 96.3933 55.9395C96.8281 55.3712 96.5379 54.8246 95.6688 54.6465C93.8631 54.2674 91.9798 54 89.6947 54C77.0224 54 72.3852 61.2795 72.3852 66.6753C72.3852 72.5284 77.0554 79.3177 89.7282 79.3177C96.7612 79.3177 101.365 77.0539 104.029 74.1446H101.342C99.0123 76.2963 95.0108 77.8242 89.7282 77.8242C78.9945 77.8242 75.0381 71.7925 75.0381 66.5972C75.1158 61.9595 79.3623 55.5604 89.9961 55.3488C90.3974 55.3377 90.7099 55.7056 90.4304 56.0512ZM128.55 89.4618C129.185 89.5511 129.676 90.0525 129.676 90.6442C129.676 91.312 129.074 91.8474 128.338 91.8474H114.718V82.9399H110.705V91.8702H103.326C101.331 91.8702 100.919 90.6548 100.919 89.5399V82.8846H94.2655C93.6074 83.3307 92.9722 83.8214 92.2924 84.2334L88.3466 86.6637L83.2198 82.9181H75.239V85.159H78.1254V83.932L84.9133 88.8046L80.2766 91.7134H75.2385V93.9543H81.0676C81.6916 93.5311 82.2827 93.085 82.9291 92.6948L86.9859 90.2311L92.1351 93.9102H97.9986L90.2513 88.0795L94.231 85.4828C95.0783 84.9246 95.9702 84.4572 96.8393 83.9447V89.8084C96.8393 92.2833 97.4745 94 102.457 94L130.6 93.9335C132.773 93.966 134.167 92.4619 134.167 90.6452C134.167 88.8381 132.561 87.3558 130.6 87.3558H120.436C120.569 86.1186 121.638 85.0824 122.72 85.0824H133.007L132.975 82.9308H122.063C118.607 82.9308 115.843 85.7959 115.765 89.1294C115.755 89.3633 115.91 89.508 116.167 89.508L128.55 89.4618ZM75.239 89.4288V87.1432H77.2228V89.4288H75.239ZM75.239 82.9181H67.7043C65.6647 82.9181 64.0929 83.4535 62.9341 84.3669C60.8499 86.0172 60.1812 87.7557 60.2035 88.5367H62.9229C61.7301 89.4288 60.9275 90.498 60.5044 91.7362H51.587C49.9823 91.7362 48.9452 90.5995 48.9452 89.4953V82.8399H45V89.7521C45 92.2376 47.3633 93.9543 51.1522 93.9543H75.239V91.7134H65.6759C65.7205 90.5767 66.9351 89.4288 68.0386 89.4288H75.239V87.1432H65.5642C65.4308 86.4744 66.6789 85.159 67.6373 85.159H75.239V82.9181Z" fill="white" fill-opacity="0.8"/>
</svg>
