<svg width="180" height="148" viewBox="0 0 180 148" fill="none" xmlns="http://www.w3.org/2000/svg">
<path fill-rule="evenodd" clip-rule="evenodd" d="M88.4442 67.0122C89.4576 59.5173 92.7988 46 99.1718 46C106.611 46 115.352 70.9891 115.35 91.6783H108.489C108.489 69.9791 103.174 50.4271 99.3498 50.4262C95.3605 50.4254 91.8642 63.7257 91.8642 89.0649H85.0131C85.0131 63.7257 81.538 50.4262 77.5276 50.4262C73.7104 50.4262 68.3987 69.9825 68.3987 91.6783H61.5383C61.5447 70.9713 70.2637 45.997 77.7162 46C84.0798 46.0021 87.4223 59.5156 88.4442 67.0122Z" fill="white" fill-opacity="0.8"/>
<path fill-rule="evenodd" clip-rule="evenodd" d="M103.495 95.2964H105.484V101.838H103.495V95.2964ZM112.797 95.2964H114.15L113.691 97.0791H112.707L112.797 95.2964ZM116.484 96.2653C117.807 96.2653 119.049 96.5993 119.056 97.8979H117.167C117.167 97.4504 116.906 97.2473 116.465 97.2473C116.204 97.2473 115.85 97.3558 115.851 97.7661C115.851 98.446 116.926 98.3103 117.84 98.5816C118.66 98.8249 119.23 99.3144 119.23 100.105C119.23 101.316 118.279 101.986 116.484 101.993C114.601 102.001 113.893 101.322 113.887 100.105H115.801C115.801 100.565 116.086 100.838 116.489 100.838C116.973 100.838 117.191 100.654 117.191 100.313C117.191 99.6018 115.873 99.62 115.095 99.3657C114.566 99.1928 114.085 98.8007 114.085 97.9679C114.086 97.2719 114.608 96.2653 116.484 96.2653ZM75.7597 99.8557C75.4299 101.156 74.3512 101.999 73.0055 102C71.3809 102 70.145 100.771 70.1467 98.9914C70.1479 97.2147 71.2461 95.9851 73.0055 95.9834C74.464 95.9822 75.4685 96.8294 75.7694 98.1315L73.9083 98.1319C73.7659 97.7403 73.4917 97.4351 73.0051 97.4347C72.1841 97.4347 71.9675 98.3048 71.9679 98.991C71.9679 99.6776 72.1841 100.548 73.0051 100.548C73.4896 100.548 73.7634 100.245 73.9062 99.8557H75.7597ZM62.0418 95.2972H64.4175L65.4517 99.1614L66.4859 95.2972H68.8632L69.9021 101.999H67.9418L67.4239 98.0827L66.3528 101.999H64.5506L63.4795 98.0827L62.9616 101.999H61L62.0418 95.2972ZM92.514 98.6337V101.839H90.5478V96.1241H92.514V96.5705C93.0116 96.1831 93.4609 95.9834 94.4811 95.9834C95.5895 95.9834 96.4821 96.7239 96.4829 97.5012V101.839H94.5027V98.6931C94.5036 98.1709 94.0356 97.7449 93.5266 97.7449C92.8709 97.7449 92.5445 98.3243 92.514 98.6337ZM110.052 96.6908V95.2964H112.041V101.838H110.052V101.521C109.792 101.757 109.449 101.998 108.592 101.998C107.628 101.998 106.095 101.462 106.095 99.1606C106.094 96.8621 107.626 96.2657 108.716 96.2657C109.508 96.2653 109.882 96.5387 110.052 96.6908ZM107.99 99.1601C107.99 100.054 108.405 100.626 109.089 100.626C109.499 100.626 109.842 100.447 110.053 100.075V98.3586C109.947 97.9797 109.58 97.7004 109.089 97.7C108.404 97.7 107.99 98.2658 107.99 99.1601ZM83.9484 98.9919C83.9497 97.2151 85.1022 95.9851 86.948 95.9834C88.7935 95.9817 89.9455 97.2147 89.9463 98.9919C89.948 100.77 88.7922 102 86.948 102C85.1039 102 83.9468 100.771 83.9484 98.9919ZM88.0869 98.9919C88.0869 98.3052 87.8491 97.4355 86.9476 97.4351C86.0452 97.4351 85.8079 98.3052 85.8079 98.9919C85.8087 99.6781 86.0457 100.548 86.9476 100.548C87.8491 100.548 88.0869 99.6785 88.0869 98.9919ZM76.4527 95.2972H79.8689C82.0059 95.2972 83.4627 96.6247 83.4627 98.6481C83.4627 100.672 82.0064 101.999 79.8689 101.999H76.4527V95.2972ZM78.7126 100.415H79.7456C80.4148 100.415 81.2295 100.007 81.2295 98.6481C81.2295 97.291 80.4148 96.8816 79.7456 96.8816H78.7126V100.415ZM100.029 95.9843C101.44 95.983 102.603 96.5022 102.694 97.6411V101.838H100.704V101.272C100.22 101.687 99.7398 101.997 98.8696 101.997C97.8562 101.997 97.0403 101.196 97.0403 100.257C97.0403 99.3187 97.6188 98.2756 99.9326 98.276C100.529 98.2764 100.703 98.0412 100.704 97.7619C100.705 97.4186 100.308 97.2266 99.9771 97.2266C99.6461 97.2266 99.2702 97.3647 99.2702 97.7237H97.4061C97.4056 96.8816 97.9719 95.9864 100.029 95.9843ZM99.9182 99.2046C99.4596 99.2046 99.0349 99.4496 99.0349 99.9192C99.0349 100.223 99.2146 100.485 99.6838 100.485C100.133 100.485 100.612 100.219 100.704 99.667V99.1445C100.551 99.2271 100.209 99.2046 99.9182 99.2046Z" fill="white" fill-opacity="0.8"/>
</svg>
