<svg width="180" height="148" viewBox="0 0 180 148" fill="none" xmlns="http://www.w3.org/2000/svg">
<path fill-rule="evenodd" clip-rule="evenodd" d="M113.941 80.8411C113.705 78.5166 114.15 74.9767 114.084 71.1902C114.014 67.2141 114.121 63.3773 113.877 60.5681C113.634 57.7593 114.113 52.078 114.155 48.8757C114.196 45.6742 114.304 44.3602 112.666 43.1102C110.67 41.5866 107.934 42.1216 105.895 42.254C103.856 42.3864 96.7667 42.6156 95.4045 42.5424C94.0424 42.4692 89.9329 41.9725 88.2806 42.0012C86.6287 42.0299 83.1343 42.2848 81.7756 42.4055C80.4168 42.5263 74.3872 42.3405 72.345 42.279C70.3027 42.2174 67.5784 42.071 66.1464 43.5512C64.7141 45.031 64.3477 46.6648 64.5007 49.863C64.6536 53.0615 65.0367 57.9269 64.8917 60.7426C64.7466 63.558 64.6368 66.702 64.9813 71.1673C65.2782 75.0208 64.9142 78.6876 64.7603 81.0186C64.6067 83.3489 64.1616 85.5632 65.8423 87.1829C67.523 88.8027 69.4205 88.8715 72.0409 88.6313C74.6609 88.3915 79.4733 88.4976 80.8369 88.6672C82.3951 88.8342 86.9749 89.4824 86.9711 83.7105C86.9674 77.9392 87.0974 74.6165 87.0327 73.6963C86.9681 72.7761 86.6013 71.0345 85.6675 70.4202C84.7336 69.8061 82.836 69.6936 81.1745 71.9537C81.3736 72.1386 81.5332 72.3618 81.6438 72.6099C81.7544 72.8581 81.8136 73.126 81.818 73.3976C81.8375 74.5146 80.9457 75.4365 79.8264 75.456C78.7071 75.4755 77.7838 74.5854 77.7643 73.4685C77.7444 72.3512 78.6363 71.4296 79.7559 71.4101C79.8917 71.4077 81.6726 69.8595 82.3486 69.6053C81.0343 69.4828 78.9927 69.4698 76.5906 71.0636C76.8663 74.5433 72.4192 75.8648 70.1064 75.4447C69.8724 72.4935 72.9399 69.2194 75.9444 70.2505C77.0459 69.3097 81.1909 67.3462 85.3993 68.9704C84.2622 67.8747 82.5312 66.1588 81.6791 64.6701C79.9526 63.1967 77.0213 62.3261 72.8591 63.3202C72.8807 64.551 71.8989 65.7117 70.6657 65.7333C69.4325 65.7548 68.4151 64.7744 68.3936 63.5439C68.3724 62.3128 69.3545 61.2978 70.5877 61.2763C70.9913 61.269 71.3893 61.3712 71.7394 61.572C72.0896 61.7728 72.3787 62.0647 72.5762 62.4168C74.0756 62.0025 77.4899 61.3481 80.7705 62.7462C80.4213 62.2187 79.8161 60.9684 79.4658 60.3923C78.5316 59.7779 76.8126 58.7411 76.0309 58.5119C74.5367 59.6486 70.7522 59.4813 69.6258 56.2955C71.693 54.2499 75.2277 55.1413 76.1589 57.4914C76.8451 57.8188 78.2634 58.3278 78.756 58.7072C77.9976 57.0231 76.1941 53.9502 73.9213 51.8074C73.5307 52.0581 73.0798 52.1939 72.5673 52.2032C71.2014 52.2268 70.0763 51.233 70.054 49.9834C70.0325 48.7338 71.122 47.7013 72.488 47.6774C73.8543 47.6538 74.9794 48.6475 75.0013 49.8972C75.0091 50.3528 74.9339 50.7558 74.6866 51.1153C75.6745 52.0198 77.0151 53.6454 78.066 55.3733C79.1165 57.1011 79.8767 58.8824 80.8841 60.902C81.8915 62.9213 83.9054 66.9121 87.4354 68.6937C85.8919 66.5864 85.8922 63.8217 85.9247 62.8998C84.1069 61.7671 83.6748 59.5918 83.7056 58.5728C82.5678 58.4732 81.6675 57.5575 81.648 56.4269C81.6268 55.2149 82.6246 54.215 83.877 54.1931C85.1294 54.1712 86.1614 55.1358 86.1826 56.3479C86.1994 57.3029 85.583 58.1263 84.7079 58.4431C84.8382 60.3324 85.6008 61.0625 86.1419 61.4411C86.2706 60.4689 87.4395 57.8294 87.9536 56.6564C88.4678 55.4834 88.8167 54.7438 88.7941 53.4347C85.7112 51.5748 86.7642 46.6433 88.0603 46.0812C89.3787 46.4462 90.5644 47.5412 91.0303 49.1822C91.4473 50.6484 91.176 52.7461 90.0461 53.5756C90.0721 55.0787 88.0918 58.9822 87.3994 61.0802C86.7071 63.1776 87.3197 67.6294 89.4369 69.1931C89.3298 65.8482 92.9901 61.1767 96.7356 58.5895C97.5734 56.4895 97.6175 53.6714 97.5354 51.7328C96.336 51.6534 95.3779 50.6679 95.3567 49.4467C95.3341 48.159 96.3617 47.0972 97.6517 47.0743C98.9417 47.0521 100.006 48.0776 100.029 49.3652C100.037 49.8174 99.9129 50.2621 99.6724 50.6452C99.4319 51.0282 99.0852 51.333 98.6745 51.5224C98.8387 52.5866 98.6786 55.7424 98.2243 57.5448C100.913 55.7037 101.76 54.6963 102.668 53.8075C102.456 52.052 102.877 48.1454 107.686 48.3588C108.216 49.9009 107.203 54.1736 103.516 54.4144C102.894 54.9586 102.227 55.7779 101.413 56.471C102.771 56.3017 103.962 56.4152 104.985 56.5918C105.352 56.0287 106.071 55.753 106.795 55.7403C107.952 55.7201 108.907 56.6403 108.927 57.7952C108.947 58.9504 108.025 59.9233 106.868 59.9233C104.447 59.9233 104.74 57.6416 104.756 57.5318C102.56 56.9882 100.361 57.5082 99.5424 57.9101C98.7734 58.4089 96.0395 60.445 94.655 61.8756C98.5671 60.4977 102.23 61.501 103.408 62.1595C107.761 60.3229 110.158 64.4693 110.279 66.0169C107.033 67.5949 103.333 65.4675 102.937 62.9921C101.265 61.9543 98.4494 62.1003 97.6756 62.308C98.5575 62.7287 99.8304 63.6965 100.032 63.6927C100.542 63.6833 101.035 63.8768 101.402 64.2306C101.769 64.5844 101.981 65.0695 101.99 65.5793C102.009 66.6398 101.162 67.5142 100.1 67.5326C99.5903 67.5419 99.0977 67.3483 98.7306 66.9946C98.3635 66.6408 98.1519 66.1558 98.1422 65.646C98.133 65.1601 98.309 64.6889 98.6345 64.328C96.7917 61.7897 93.8474 62.9562 92.5605 64.3851C91.2729 65.814 90.7286 68.0061 90.7385 68.588C90.7484 69.1698 90.627 70.53 90.5863 71.0157C92.4431 68.8007 98.563 65.8325 104.876 71.1064C105.272 70.7739 105.767 70.5532 106.325 70.5436C107.615 70.5211 108.679 71.547 108.701 72.8342C108.724 74.1215 107.696 75.184 106.406 75.2066C105.116 75.2285 104.051 74.2029 104.029 72.9157C104.022 72.5759 104.091 72.2388 104.229 71.9284C98.1665 67.0869 93.3862 69.9484 92.2375 70.9384C91.0885 71.9287 90.6728 73.1968 90.6486 74.6038C90.6253 76.0108 90.9527 80.9772 91.1042 84.0785C91.2551 87.1799 91.7268 87.5072 93.1013 88.3084C94.4765 89.1089 98.2257 88.6265 99.4452 88.5314C101.203 88.3837 104.551 88.5475 107.178 88.6953C109.805 88.8438 111.578 88.8403 113.2 87.1628C114.824 85.4838 114.175 83.1648 113.941 80.8411ZM78.4645 64.0242C78.7734 67.8018 75.9222 68.7248 73.7284 68.3263C73.1331 64.8445 76.7086 63.6667 78.4645 64.0242ZM78.1423 54.0532C76.7462 52.0403 77.7397 47.7065 81.3268 47.1591C82.9698 49.41 81.8248 53.407 78.1423 54.0532ZM95.3833 56.9366C95.0659 58.2519 93.2241 61.291 89.0151 59.6182C89.2847 58.3525 90.3458 56.9609 91.148 56.5254C92.2553 55.924 93.8067 55.703 95.3833 56.9366ZM100.708 74.9627C95.8417 74.6107 96.1739 71.3554 96.3015 70.3346C99.8927 70.0295 101.107 72.773 100.708 74.9627ZM81.5939 95.3536V95.9355C81.1082 95.9594 80.1845 95.9594 80.1845 96.9296V104.179C80.1845 105.149 81.1078 105.125 81.5939 105.149V105.731H75.7142V105.149C76.1999 105.125 77.1236 105.149 77.1236 104.179V96.9296C77.1236 95.9594 76.2003 95.9594 75.7142 95.9355V95.3536H81.5939ZM74.1611 97.2378H74.5744V94.8131C74.0154 94.1584 72.9949 93.4068 70.7598 93.4068C68.5246 93.4068 64.1569 94.2312 64.0053 99.2742C63.8596 104.124 66.7266 105.724 70.5651 105.724C71.9742 105.724 73.1893 105.579 74.5983 104.754V102.329H74.064C73.7725 103.542 72.3631 104.948 70.7112 104.997C69.0589 105.046 67.4067 103.203 67.4067 100.002C67.4067 96.8013 68.5728 94.182 71.0026 94.182C72.7517 94.1823 74.015 96.5588 74.1611 97.2378ZM88.9764 104.035C88.9764 105.004 88.126 105.296 87.616 105.296C85.9637 105.199 85.3076 102.652 85.3804 100.107C85.4533 97.5607 86.4009 96.0333 88.296 96.0333C90.143 96.0333 90.8712 97.6093 91.1145 98.3612H91.6249V96.348C90.9198 95.6694 89.389 95.2202 88.1017 95.2571C86.4009 95.3061 82.222 96.2273 82.222 100.519C82.222 105.732 86.1094 105.975 87.5671 105.999C88.4418 106.014 90.1669 105.878 90.9927 105.611C91.8185 105.345 91.7945 104.787 91.7945 104.423V102.217C91.7945 101.246 92.7178 101.392 93.2036 101.368V100.786H87.3245V101.368C87.8103 101.392 88.9768 101.247 88.9768 102.217V104.035H88.9764Z" fill="white" fill-opacity="0.8"/>
<path fill-rule="evenodd" clip-rule="evenodd" d="M103.269 105.732V96.8333C103.269 95.8639 104.192 95.9607 104.679 95.9367V95.3548H100.718V95.9367C101.325 95.9607 102.249 95.8639 102.249 96.8333V102.143L97.1468 95.3545H92.7244V95.9364C93.2108 95.9603 94.207 96.5665 94.7167 97.4638V104.35C94.7167 105.32 93.7941 105.126 93.3076 105.15V105.732H97.3894V105.15C96.6604 105.126 95.7378 105.32 95.7378 104.35V98.3614L101.083 105.732H103.269ZM113.721 104.278L110.174 95.3548H108.547L105.048 104.181C104.732 104.957 104.246 105.15 103.736 105.15V105.732H106.676V105.15C105.752 105.15 105.923 104.69 106.043 104.375L106.724 102.629H110.198L110.879 104.35C111.122 105.005 110.66 105.15 110.053 105.15V105.732H115.058V105.15C113.989 105.15 113.892 104.714 113.721 104.278ZM107.065 101.828L108.449 98.2885L109.907 101.828H107.065Z" fill="white" fill-opacity="0.8"/>
</svg>
