<svg width="180" height="148" viewBox="0 0 180 148" fill="none" xmlns="http://www.w3.org/2000/svg">
<path fill-rule="evenodd" clip-rule="evenodd" d="M61.0367 95.9479L55 106H57.8931L58.7916 104.532H64.9659L63.8519 102.589H59.9053L62.263 98.2279L62.6687 98.2625L66.9434 106H69.7329L64.1112 95.9479H61.0367ZM70.0956 98.9358V103.046C70.0956 104.679 71.4169 106.009 73.0578 106H81.3226V104.065H73.3856C73.2714 104.066 73.1581 104.045 73.0522 104.002C72.9464 103.959 72.8501 103.896 72.769 103.816C72.6878 103.735 72.6234 103.64 72.5796 103.534C72.5357 103.429 72.5132 103.316 72.5134 103.202V98.7805C72.5124 98.6656 72.5342 98.5517 72.5776 98.4454C72.621 98.3391 72.6852 98.2425 72.7664 98.1612C72.8476 98.08 72.9442 98.0158 73.0505 97.9723C73.1568 97.9288 73.2707 97.907 73.3856 97.908L81.3222 97.8995V95.965H73.0578C71.4169 95.965 70.0956 97.3038 70.0956 98.9358ZM92.4102 103.306C92.4067 103.536 92.3137 103.756 92.151 103.918C91.9883 104.081 91.7687 104.174 91.5385 104.178H86.3222C86.0924 104.176 85.8729 104.083 85.7113 103.919C85.5496 103.756 85.4588 103.535 85.4587 103.306V95.965H83.0319V103.047C83.0233 104.679 84.3617 106.009 85.9937 106H91.8662C93.4986 106.009 94.8281 104.679 94.8367 103.047V95.965H92.4099V103.306H92.4102ZM97.2204 90.8096C109.173 88.9012 115.926 81.6126 115.926 66.6724C115.926 51.724 109.173 44.4354 97.2204 42.5269C95.0184 42.1728 92.635 42 90.0878 42C87.5403 42 85.1566 42.1728 82.9546 42.5269C71.0111 44.4354 64.2494 51.724 64.2494 66.6724C64.2494 81.6126 71.0111 88.9012 82.9546 90.8096C85.1566 91.1638 87.5403 91.328 90.0878 91.328C92.635 91.328 95.0184 91.1638 97.2204 90.8096ZM97.2204 44.4008C105.666 46.223 112.584 51.9915 112.584 66.6727C112.584 77.8303 108.586 83.8317 102.955 86.872L99.7765 65.5156L97.2204 58.3136L92.0479 43.745C93.8007 43.8312 95.5453 44.0381 97.2204 44.4008ZM89.1117 43.7015C89.4398 43.6929 89.7594 43.684 90.0878 43.684C90.407 43.684 90.7351 43.6926 91.0632 43.7015L91.3486 61.4996H88.8267L89.1117 43.7015ZM67.5911 66.6727C67.5911 51.9919 74.5085 46.223 82.9542 44.4008C84.6293 44.0381 86.3739 43.8308 88.127 43.7446L82.9542 58.3132L80.3981 65.5153L77.2199 86.8716C71.5897 83.8317 67.5911 77.8303 67.5911 66.6727ZM82.9542 88.9358C81.1409 88.5385 79.3963 87.9682 77.7725 87.1652L82.9542 76.4134L88.5673 64.7635H91.6072L97.22 76.4134L102.402 87.1652C100.778 87.9682 99.0337 88.5382 97.22 88.9358C94.9229 89.4277 92.505 89.6351 90.0875 89.6436C87.6692 89.6351 85.2513 89.4277 82.9542 88.9358ZM117.454 98.2625L121.729 106H124.519L118.905 95.9479H115.822L109.786 106H112.679L113.577 104.532H119.76L118.646 102.589H114.691L117.048 98.2279L117.454 98.2625ZM106.539 95.965L97.2204 95.9568H96.7459V106H99.1637V97.8995H105.882C106.271 97.8995 106.59 98.219 106.599 98.6077V100.024C106.591 100.412 106.271 100.732 105.882 100.732H100.044L100.571 102.666L105.882 102.675C106.271 102.675 106.59 102.986 106.599 103.383V106H108.861V103.53C108.854 102.796 108.335 101.863 107.618 101.708C108.335 101.544 109.008 100.922 109.017 100.188V98.4435C109.009 97.079 107.903 95.965 106.539 95.965Z" fill="white" fill-opacity="0.8"/>
</svg>
