<svg width="180" height="148" viewBox="0 0 180 148" fill="none" xmlns="http://www.w3.org/2000/svg">
<path d="M53.4067 71.8251C53.0006 72.9709 50.4424 74.1675 44.1586 72.7465L44.9764 76.4577C51.2599 77.5996 54.9844 76.6603 57.1118 74.4269C58.6873 72.7716 58.9962 70.6306 57.7014 68.9921C56.332 67.2577 53.2984 66 49.4677 66C43.9883 66 40.0834 67.5876 37.915 73.5452L35 81.5549H40.0998L43.0005 73.454C44.1907 70.1225 46.6917 69.5709 49.4677 69.5709C52.3789 69.5709 53.7839 70.7693 53.4067 71.8251ZM103.902 75.3404L103.704 75.2556C104.846 74.8007 106.084 74.5545 107.315 74.5545C108.062 74.5545 109.723 74.6811 110.423 75.0817C110.594 75.1773 110.75 75.3281 110.666 75.5153C110.356 76.2115 105.808 76.1726 103.902 75.3404ZM113.218 73.4674C112.013 72.823 110.025 72.3094 108.082 72.2301C104.05 72.0644 99.4534 73.4394 98.5381 76.6898C98.0087 78.5595 99.8207 81.0848 104.539 81.8012C106.9 82.1636 110.65 82.072 113.35 81.1798L114.358 78.4046C108.884 80.2857 101.729 79.7396 101.968 76.9218C104.617 78.6213 108.481 78.4599 111.343 77.9914C116.3 77.1823 116.227 75.0754 113.218 73.4674ZM121.575 75.3404L121.379 75.2556C122.519 74.8007 123.759 74.5545 124.988 74.5545C125.737 74.5545 127.395 74.6811 128.096 75.0817C128.266 75.1773 128.422 75.3281 128.338 75.5153C128.029 76.2115 123.482 76.1726 121.575 75.3404ZM130.89 73.4674C129.686 72.823 127.698 72.3094 125.754 72.2301C121.724 72.0644 117.128 73.4394 116.211 76.6898C115.683 78.5595 117.496 81.0848 122.211 81.8012C124.572 82.1636 128.325 82.072 131.023 81.1798L132.033 78.4046C126.558 80.2857 119.404 79.7396 119.643 76.9218C122.292 78.6213 126.155 78.4599 129.016 77.9914C133.971 77.1823 133.902 75.0754 130.89 73.4674ZM134.612 75.8533L132.59 81.5569H137.258L138.815 77.1677C139.197 76.0546 139.522 75.2217 140.883 75.2217H144.163L145.084 72.594H139.041C137.02 72.5938 135.39 73.5961 134.612 75.8533ZM56.4039 81.5569H61.238L64.5048 72.5938H59.6713L56.4039 81.5569ZM87.7686 76.7339C88.2184 75.5008 89.577 74.9299 90.767 74.9299C91.9465 74.9299 93.0757 75.625 92.6386 76.8256L90.9125 81.5567H95.5819L97.3331 76.7508C98.2416 74.2552 96.2739 72.1881 91.865 72.1881C86.9572 72.1881 84.1757 73.7917 83.1035 76.7289L81.3447 81.5571H86.0109L87.7686 76.7339ZM73.3681 75.0211C75.2544 75.1007 76.7747 76.0494 76.5039 77.2829C76.244 78.4718 74.4052 79.2812 72.4974 79.1993C70.6105 79.121 69.0918 78.1681 69.3603 76.9354C69.6225 75.749 71.4599 74.938 73.3681 75.0211ZM74.0257 72.2345C69.1634 72.0283 64.8312 74.1067 64.2486 76.7647C63.6741 79.3801 66.9585 81.779 71.8397 81.9852C76.7 82.1922 81.0341 80.1141 81.6176 77.4554C82.1905 74.8405 78.9059 72.4393 74.0257 72.2345Z" fill="white" fill-opacity="0.8"/>
</svg>
