<svg width="180" height="148" viewBox="0 0 180 148" fill="none" xmlns="http://www.w3.org/2000/svg">
<path fill-rule="evenodd" clip-rule="evenodd" d="M66.4501 49.1276L66.0475 48.0004C65.743 48.0838 65.4289 48.1269 65.1133 48.1286C64.6464 48.1286 64.1953 48.0806 63.7284 48C63.2304 49.7515 62.6187 51.452 62.0052 53.158C61.9247 53.3817 61.8442 53.6056 61.7639 53.8297L59.799 59.3373C58.3335 63.4438 56.7394 67.5341 55 71.5279C55.5475 71.4314 56.1113 71.3667 56.6747 71.3667C57.1145 71.3647 57.5528 71.4188 57.979 71.5279L58.156 70.8835L58.9291 68.1618L59.8633 65.2956L60.1047 64.6032C61.3125 64.5389 62.5202 64.5226 63.728 64.5226C64.8878 64.5226 66.0308 64.5385 67.1906 64.6032L67.3514 65.1344L68.2209 67.8724L68.9939 70.7068L69.2194 71.5279C70.0893 71.4314 70.9588 71.3667 71.8283 71.3667C72.7141 71.3667 73.5999 71.4314 74.4694 71.5279C73.5356 69.2413 72.6661 66.9064 71.8446 64.5873L69.9126 59.2087L68.0124 53.8138L66.4501 49.1276ZM80.4761 66.1492L80.2185 66.9707L80.0092 66.2465L79.3005 63.8953L78.4953 61.1252L77.7227 58.5163L77.014 55.8752L76.7563 55.1022C76.0798 55.1986 75.4036 55.2633 74.7112 55.2633C73.8417 55.2633 72.9718 55.1827 72.1186 55.1022L72.36 55.8426L73.6642 59.6915L74.9526 63.524L76.1119 67.3086L77.2554 71.0768L77.384 71.5279C77.8994 71.4314 78.4306 71.3667 78.9623 71.3667C79.5192 71.3644 80.075 71.4184 80.6211 71.5279C82.0059 66.2136 84.0348 60.9957 86.064 55.9069L86.3701 55.1018C85.8869 55.1824 85.42 55.2308 84.9368 55.2308C84.5664 55.2308 84.2122 55.1665 83.8577 55.1018L83.7128 55.6171L82.9882 58.1295L82.1187 60.9636L81.3457 63.4438L80.4761 66.1492ZM87.1757 59.7399H87.5783C88.1095 58.2423 89.3336 56.8737 91.0254 56.8733C92.6679 56.8733 93.8272 58.2903 93.8272 59.8848C93.8272 61.5109 92.2978 61.98 90.5761 62.508C88.3592 63.188 85.8234 63.9657 85.8234 67.4372C85.8234 70.0783 87.5791 71.882 90.2198 71.882C91.9914 71.882 93.2313 70.6901 94.1488 69.3053C94.6165 70.7386 95.5337 71.6887 97.1282 71.6887C98.2232 71.6887 99.1416 71.2702 100.028 70.6742V70.0461C99.8979 70.0783 99.753 70.0946 99.6081 70.0946C97.8657 70.0946 97.9821 67.7568 98.0548 66.2979C98.0674 66.0444 98.0787 65.8174 98.0787 65.6339V61.3018C98.0787 57.405 97.0317 54.7476 92.6675 54.7476C90.3969 54.7476 88.3517 55.5369 86.7251 57.131C86.9665 58.0009 87.192 58.822 87.1757 59.7399ZM103.231 55.2471C102.442 55.2471 101.685 55.2149 100.913 55.1022L100.961 56.0685L100.961 56.0697C101.073 58.3725 101.186 60.6912 101.186 63.0095C101.186 65.8276 101.154 68.6621 100.913 71.4802C101.685 71.4159 102.458 71.3675 103.231 71.3675C103.916 71.3644 104.6 71.4184 105.276 71.5287V70.9811L105.18 68.4528L105.164 65.6347V63.4446C105.164 63.3681 105.164 63.2881 105.163 63.205C105.158 61.2599 105.148 57.6309 107.805 57.6309C110.502 57.6309 110.404 61.4244 110.347 63.6442C110.339 63.9295 110.333 64.1887 110.333 64.4106C110.333 66.5685 110.285 68.7264 110.188 70.8843L110.172 71.5287C110.897 71.3996 111.622 71.3675 112.346 71.3675C113.085 71.3644 113.822 71.4183 114.552 71.5287C114.424 69.4835 114.36 67.4221 114.36 65.377C114.36 64.5073 114.4 63.6375 114.44 62.7678C114.48 61.8982 114.521 61.0286 114.521 60.1592C114.521 57.3414 112.813 54.7484 109.802 54.7484C107.741 54.7484 106.146 56.0205 105.083 57.6952V57.2926L105.148 56.5196L105.18 55.5532L105.228 55.1022C104.567 55.199 103.9 55.2474 103.231 55.2471ZM121.509 49.3531L121.284 49.1276C119.915 49.9169 118.546 50.5772 117.096 51.1894C117.096 51.8999 117.129 52.6063 117.161 53.3107C117.193 54.0112 117.225 54.7097 117.225 55.4083L114.6 55.2792C114.633 55.5853 114.649 55.8915 114.649 56.1972C114.649 56.5033 114.633 56.7927 114.6 57.0988L114.641 57.096C115.078 57.0647 115.515 57.0336 115.937 57.0182L116.758 57.002L117.225 56.9857V57.646L117.193 59.9166L117.161 62.5898C117.153 62.9523 117.144 63.3158 117.135 63.6798C117.108 64.7713 117.081 65.8673 117.081 66.954C117.081 69.5951 117.966 71.882 120.977 71.882C122.217 71.882 123.393 71.6406 124.504 71.109L124.778 69.7563C124.214 69.9497 123.635 70.0946 123.038 70.0946C121.028 70.0946 121.113 67.6962 121.17 66.0844C121.178 65.8757 121.185 65.6802 121.187 65.5049L121.203 62.9444L121.219 60.0297V57.8393C121.219 57.5658 121.219 57.2759 121.235 56.9861L121.767 57.0024L122.814 57.0508L123.909 57.0671L124.263 57.0992L124.247 56.8094L124.244 56.7697C124.228 56.5919 124.214 56.4256 124.214 56.2456C124.217 56.0145 124.228 55.7835 124.247 55.5532L124.263 55.2792L121.235 55.4241L121.251 54.9572L121.348 52.5417L121.509 49.9649V49.3531ZM80.7017 81.5768L81.1043 81.5288C81.2076 80.3182 81.5546 79.1214 81.8976 77.9379C81.9288 77.8303 81.9599 77.7229 81.9908 77.6156C79.7365 76.3268 77.4174 75.6669 74.8244 75.6669C67.4649 75.6669 62.199 80.5461 62.199 88.0183C62.199 95.313 66.8205 100 74.116 100C76.9664 100 79.7202 99.3076 82.4093 98.3412C82.1032 95.4909 82.2322 92.5278 82.4415 89.6771L82.5058 88.9529C81.7332 89.049 80.976 89.1296 80.203 89.1296C79.3819 89.1296 78.5763 89.0816 77.7711 88.9204L77.8359 89.7097C77.9323 91.0306 78.0129 92.3503 78.0129 93.6554C78.0129 94.3781 77.9858 95.1015 77.9587 95.8248C77.9496 96.0679 77.9404 96.3111 77.9323 96.5541L77.8998 97.2466C76.885 97.7452 75.6935 97.9708 74.55 97.9708C69.0586 97.9708 67.1906 92.9467 67.1906 88.2116C67.1906 83.3805 69.0745 77.7283 74.8236 77.7283C77.4809 77.7283 79.6868 79.1295 80.7017 81.5768ZM85.0822 87.761H85.4689C86.0001 86.2793 87.2242 84.9103 88.9155 84.9111C90.5422 84.9111 91.7015 86.3122 91.7015 87.8904C91.7015 89.541 90.1687 90.0081 88.4459 90.533C86.2362 91.2064 83.714 91.9749 83.714 95.4587C83.714 98.0843 85.453 99.9198 88.0941 99.9198C89.7366 99.9198 90.7995 98.9209 91.7496 97.6972L92.0394 97.3264C92.442 98.7922 93.4723 99.7102 95.0187 99.7102C96.1138 99.7102 97.0321 99.2913 97.9175 98.6949V98.0839L97.8982 98.086C97.7593 98.1008 97.6201 98.1157 97.4661 98.1157C95.7748 98.1157 95.8674 95.6644 95.9212 94.238C95.9294 94.0212 95.9367 93.8281 95.9367 93.6709V89.3392C95.9367 85.4098 94.9858 82.7687 90.5573 82.7687C88.3192 82.7687 86.1613 83.5092 84.6152 85.168L84.621 85.1889C84.8602 86.0508 85.0822 86.8504 85.0822 87.761ZM107.595 87.6641L107.933 87.3906C107.853 86.5528 107.821 85.7318 107.821 84.8944C107.821 84.1698 107.836 83.4774 107.933 82.7687C105.035 82.785 103.73 84.8627 102.86 87.3906V85.3459L102.925 83.6708L102.941 83.1395C102.297 83.2201 101.637 83.2845 100.992 83.2845C100.379 83.2845 99.7659 83.2268 99.163 83.1701C99.0532 83.1597 98.9437 83.1494 98.8346 83.1395C99.0594 85.7481 99.1082 88.3895 99.1082 91.0143C99.1082 93.8642 99.0919 96.7145 98.8346 99.549C99.6232 99.4684 100.429 99.3878 101.218 99.3878C101.909 99.3878 102.585 99.4682 103.261 99.5487L103.263 99.549C103.166 98.5826 103.134 97.6166 103.102 96.6502L103.038 93.8321V93.011C103.038 92.9478 103.038 92.8832 103.037 92.8175C103.035 90.6573 103.03 87.2298 105.968 87.2298C106.548 87.2298 107.096 87.3584 107.595 87.6641ZM120.302 73.9756C119.512 73.9756 118.739 73.9275 117.967 73.8311C118.079 75.0165 118.106 76.2145 118.132 77.4132C118.136 77.5823 118.14 77.7514 118.144 77.9205L118.224 81.3025L118.241 84.3787V85.3768C117.435 83.7347 116.034 82.7683 114.15 82.7683C109.56 82.7683 108.127 87.9377 108.127 91.6738C108.127 95.3618 109.576 99.9194 113.941 99.9194C116.179 99.9194 117.564 98.5989 118.337 96.6022C118.337 97.3268 118.289 98.0518 118.224 98.7759L118.144 99.549C118.755 99.4529 119.367 99.3723 119.98 99.3723C120.833 99.3723 121.687 99.4529 122.54 99.549L122.492 98.6151C122.315 94.5725 122.267 90.5311 122.267 86.473C122.267 86.1187 122.266 85.7642 122.265 85.4096C122.262 84.362 122.259 83.3121 122.282 82.2537L122.363 78.1305C122.367 77.9437 122.371 77.7569 122.375 77.5701C122.401 76.3239 122.428 75.0775 122.54 73.8311C121.799 73.9113 121.042 73.9756 120.302 73.9756ZM63.4397 55.3436L63.7296 54.5547L64.0039 55.2789C64.7769 57.405 65.5337 59.5303 66.2102 61.6886L66.4516 62.4938C66.1642 62.4992 65.8768 62.5063 65.5894 62.5134C65.0071 62.5278 64.4248 62.5422 63.8427 62.5422H63.585L61.5399 62.4938H60.8796L61.1532 61.6886C61.8778 59.5629 62.6508 57.4534 63.4397 55.3436ZM93.6179 62.7193L94.0531 62.5422C94.0205 62.8483 93.9887 63.1703 93.9887 63.4919C93.9887 63.8463 94.0048 64.2046 94.0209 64.5629C94.037 64.9213 94.0531 65.2796 94.0531 65.6339C94.0531 67.1157 93.876 69.5956 91.8467 69.5956C90.4782 69.5956 90.1236 68.1464 90.1236 67.0351C90.1236 64.394 91.3473 63.621 93.6179 62.7193ZM87.9979 95.0721C87.9979 92.19 89.4796 91.4646 91.9277 90.563C91.8952 90.8528 91.8634 91.1593 91.8634 91.448C91.8634 91.819 91.8754 92.1896 91.8875 92.5602C91.8995 92.9304 91.9115 93.3005 91.9115 93.6706C91.9115 95.1364 91.7661 97.6326 89.721 97.6326C88.3524 97.6326 87.9979 96.1834 87.9979 95.0721ZM115.52 84.9588C118.08 84.9588 118.225 88.9685 118.225 90.7405C118.225 92.7209 118.225 97.8422 115.229 97.8422C112.634 97.8422 112.636 93.3773 112.637 91.5884C112.637 91.5573 112.637 91.527 112.637 91.4976C112.637 89.6296 112.718 84.9588 115.52 84.9588Z" fill="white" fill-opacity="0.8"/>
</svg>
