<svg width="180" height="148" viewBox="0 0 180 148" fill="none" xmlns="http://www.w3.org/2000/svg">
<path fill-rule="evenodd" clip-rule="evenodd" d="M53 91.7604H56.1111C57.2251 91.7604 58.0193 91.9935 58.4953 92.4576C58.9691 92.9239 59.2073 93.7007 59.2073 94.7923C59.2073 96.0278 58.9666 96.8592 58.4876 97.2878C58.0087 97.7177 57.0783 97.9309 55.6964 97.9309H55.1011V102.017H53V91.7604ZM55.1011 96.3904H55.6964C56.257 96.3904 56.634 96.2854 56.8227 96.0773C57.011 95.8691 57.1054 95.4502 57.1054 94.8194C57.1054 94.2334 57.0059 93.8344 56.81 93.6212C56.6141 93.4079 56.2444 93.3013 55.696 93.3013H55.1007V96.3904H55.1011ZM64.5418 102.017V91.7604H69.6677V93.2865H66.6434V95.9977H69.5658V97.5243H66.6434V100.491H69.7244V102.017H64.5418ZM76.9421 102.017H75.2201V91.7604H78.3092L80.0833 100.417V91.7604H81.8053V102.017H78.731L76.9421 93.2865V102.017ZM87.4744 102.017V91.7604H92.3871V93.2865H89.5756V96.0798H92.2335V97.606H89.5756V102.017H87.4744ZM100.986 102.171C99.8176 102.171 98.9939 101.911 98.5153 101.386C98.036 100.863 97.7956 99.9626 97.7956 98.6874V94.4648C97.7956 93.5095 98.0609 92.7948 98.5923 92.3189C99.1229 91.8446 99.9196 91.6064 100.986 91.6064C102.053 91.6064 102.852 91.8441 103.385 92.3189C103.919 92.7948 104.184 93.5095 104.184 94.4648V98.6874C104.184 99.9626 103.944 100.863 103.465 101.386C102.986 101.911 102.16 102.171 100.986 102.171ZM100.986 100.63C101.398 100.63 101.684 100.493 101.842 100.223C102.003 99.9499 102.083 99.4685 102.083 98.7767V94.5516C102.083 94.0895 101.988 93.7401 101.802 93.5044C101.617 93.2666 101.343 93.1465 100.986 93.1465C100.629 93.1465 100.355 93.2662 100.172 93.5044C99.9882 93.7401 99.8968 94.0895 99.8968 94.5516V98.7767C99.8968 99.4685 99.9763 99.9499 100.137 100.223C100.296 100.493 100.58 100.63 100.986 100.63ZM109.772 91.7604H112.853C113.955 91.7604 114.739 91.9635 115.21 92.3709C115.679 92.7775 115.915 93.4625 115.915 94.423C115.915 95.5069 115.677 96.2385 115.203 96.6184C114.965 96.8067 114.6 96.9531 114.106 97.0597H114.221C114.793 97.0597 115.225 97.248 115.518 97.6233C115.81 98.0003 115.942 98.5364 115.907 99.2332C115.892 99.6305 115.887 100.045 115.892 100.476C115.902 100.924 115.917 101.261 115.937 101.491C115.956 101.72 115.984 101.893 116.023 102.01H113.929C113.894 101.898 113.872 101.73 113.857 101.501C113.839 101.16 113.832 100.818 113.835 100.476V99.2332C113.844 98.72 113.748 98.3574 113.544 98.1467C113.341 97.936 112.986 97.8319 112.482 97.8319H111.872V102.018H109.77V91.7604H109.772ZM111.873 96.2605H112.454C112.997 96.2605 113.36 96.1589 113.541 95.958C113.721 95.757 113.813 95.358 113.813 94.7547C113.813 94.1936 113.717 93.8095 113.526 93.6059C113.335 93.4024 112.977 93.3009 112.454 93.3009H111.873V96.2605ZM121.373 91.7604H124.135C125.455 91.7604 126.395 92.0206 126.956 92.5423C127.519 93.0627 127.799 93.9338 127.799 95.1545V98.0278C127.804 99.5692 127.559 100.618 127.063 101.179C126.564 101.737 125.628 102.017 124.251 102.017H121.373V91.7604ZM123.475 100.476H124.028C124.686 100.476 125.13 100.342 125.356 100.072C125.584 99.804 125.698 99.2827 125.698 98.5139V95.124C125.698 94.4323 125.572 93.9554 125.316 93.6927C125.063 93.4325 124.597 93.3009 123.92 93.3009H123.475V100.476H123.475ZM63.4244 110.424C63.383 110.731 63.1947 111.196 62.5575 111.196C61.8966 111.196 61.5429 110.636 61.5429 109.857C61.5429 108.477 62.3095 108.436 62.5279 108.436C62.7521 108.436 63.3009 108.465 63.3893 109.155H64.3451C64.3155 108.548 63.944 107.633 62.4809 107.633C62.0853 107.633 60.4927 107.716 60.4927 109.892C60.4927 111.515 61.4604 111.999 62.5164 111.999C63.9795 111.999 64.3273 111.042 64.3925 110.423H63.4244V110.424ZM68.5156 112C69.9372 112 70.6041 111.067 70.6041 109.816C70.6041 108.566 69.9372 107.633 68.5156 107.633C66.8871 107.633 66.4272 108.855 66.4272 109.816C66.4268 110.778 66.8871 112 68.5156 112ZM68.5156 111.196C67.9787 111.196 67.4832 110.896 67.4832 109.815C67.4832 108.725 67.9787 108.435 68.5156 108.435C69.5124 108.435 69.5539 109.444 69.5539 109.815C69.5535 110.164 69.5061 111.196 68.5156 111.196ZM72.9337 111.881H73.9068V110.358H74.6561C74.7682 110.358 75.2815 110.335 75.3225 110.83C75.3754 111.461 75.3107 111.621 75.4879 111.88H76.4788C76.3312 111.668 76.3312 111.497 76.3198 110.972C76.3138 110.671 76.302 110.134 75.7295 109.969V109.958C76.0012 109.863 76.4492 109.621 76.4492 108.925C76.4492 107.857 75.4638 107.752 75.0454 107.752H72.9337V111.881ZM73.9068 108.554H74.7623C75.1812 108.554 75.4232 108.678 75.4232 109.084C75.4232 109.285 75.3462 109.604 74.7974 109.604H73.9068V108.554ZM78.7911 107.751V111.881H79.7642V110.459H80.6904C81.1918 110.459 82.2711 110.377 82.2711 109.084C82.2711 108.064 81.5514 107.752 80.7137 107.752H78.7911V107.751ZM79.7642 108.554H80.5254C80.7437 108.554 81.2218 108.53 81.2218 109.09C81.2218 109.492 80.9857 109.657 80.5254 109.657H79.7642V108.554ZM86.3947 112C87.8163 112 88.4831 111.067 88.4831 109.816C88.4831 108.566 87.8167 107.633 86.3947 107.633C84.7662 107.633 84.3063 108.855 84.3063 109.816C84.3063 110.778 84.7666 112 86.3947 112ZM86.3947 111.196C85.8578 111.196 85.3623 110.896 85.3623 109.815C85.3623 108.725 85.8582 108.435 86.3947 108.435C87.3915 108.435 87.433 109.444 87.433 109.815C87.433 110.164 87.386 111.196 86.3947 111.196ZM90.8127 111.881H91.7863V110.358H92.5356C92.6473 110.358 93.1605 110.335 93.2016 110.83C93.2553 111.461 93.1902 111.621 93.367 111.88H94.3588C94.2107 111.668 94.2107 111.497 94.1993 110.972C94.1933 110.671 94.1819 110.134 93.609 109.969V109.958C93.8802 109.863 94.3287 109.621 94.3287 108.925C94.3287 107.857 93.3437 107.752 92.9249 107.752H90.8127V111.881ZM91.7863 108.554H92.6414C93.0603 108.554 93.3023 108.678 93.3023 109.084C93.3023 109.285 93.2253 109.604 92.6765 109.604H91.7859V108.554H91.7863ZM97.7203 107.751L96.1743 111.881H97.2016L97.461 111.108H98.9592L99.2253 111.881H100.257L98.7053 107.751H97.7203ZM97.6734 110.406L98.2162 108.83L98.7468 110.406H97.6734ZM102.764 108.554V111.881H103.737V108.554H104.982V107.751H101.513V108.554H102.764ZM107.13 107.751V111.881H108.102V107.751H107.13ZM112.527 112C113.948 112 114.615 111.067 114.615 109.816C114.615 108.566 113.948 107.633 112.527 107.633C110.899 107.633 110.438 108.855 110.438 109.816C110.438 110.778 110.899 112 112.527 112ZM112.527 111.196C111.989 111.196 111.495 110.896 111.495 109.815C111.495 108.725 111.99 108.435 112.527 108.435C113.523 108.435 113.565 109.444 113.565 109.815C113.565 110.164 113.517 111.196 112.527 111.196ZM117.93 109.297L119.558 111.881H120.549V107.751H119.576V110.317H119.558L117.93 107.751H116.944V111.881H117.918V109.297H117.93ZM79.9403 45.0781V75.4269H91.4614V74.807C90.1002 74.4791 88.7353 73.6537 88.7353 72.4537V51.3955C88.7353 50.6022 87.5303 50.2958 86.877 50.1566V49.5372H95.7986V50.2806C95.0912 50.5675 93.9378 50.9449 93.9378 51.668V63.1641C99.1631 63.2513 103.674 58.4643 103.972 54.1207C104.269 49.7771 99.381 45.0781 95.1766 45.0781H79.9403Z" fill="white" fill-opacity="0.8"/>
<path d="M90.343 36C97.3597 36 103.735 38.6067 108.36 42.8111C113.01 47.0388 115.894 52.8801 115.894 59.3206C115.894 65.7611 113.011 71.6024 108.36 75.8301C103.735 80.0349 97.3597 82.6412 90.343 82.6412C83.3263 82.6412 76.9509 80.0349 72.326 75.8301C67.6757 71.6024 64.7922 65.7611 64.7922 59.3206C64.7922 52.8801 67.6753 47.0388 72.326 42.8111C76.9505 38.6067 83.3263 36 90.343 36ZM90.343 38.0474C83.8505 38.0474 77.9626 40.4489 73.7015 44.3229C69.4658 48.1739 66.8396 53.4809 66.8396 59.321C66.8396 65.1611 69.4658 70.4685 73.7015 74.3192C77.9622 78.1931 83.8505 80.5946 90.343 80.5946C96.8351 80.5946 102.724 78.1931 106.984 74.3192C111.22 70.4685 113.846 65.1611 113.846 59.321C113.846 53.4809 111.22 48.1739 106.984 44.3229C102.723 40.4489 96.8347 38.0474 90.343 38.0474Z" fill="white" fill-opacity="0.8"/>
</svg>
