<svg width="180" height="148" viewBox="0 0 180 148" fill="none" xmlns="http://www.w3.org/2000/svg">
<path fill-rule="evenodd" clip-rule="evenodd" d="M106.223 95.5881H103.689V91.6348H113.115V95.5881H110.682V104H106.223V95.5881ZM90.7166 104V100.047H87.1689V91.6348H82.6081V104H90.7166ZM67 104V91.6348H75.7163V94.6757H71.5608V96.297H75.311V99.3379H71.5608V104H67ZM98.9258 91.6348C101.46 91.6348 102.98 93.5607 102.98 95.892C102.98 98.324 101.46 100.149 98.9258 100.149H96.1895V104H91.7298V91.6348H98.9258ZM97.0002 97.1077C97.8109 97.1077 98.4191 96.6009 98.4191 95.892C98.4191 95.2839 97.8109 94.7771 97.0002 94.7771H96.1895V97.1077H97.0002ZM76.8313 104H81.3921V91.6348H76.8313V104ZM68.7231 89.3046C69.4327 89.3046 70.0409 88.6964 70.0409 87.9868C70.0409 87.2776 69.4327 86.7704 68.7231 86.7704C68.0135 86.7704 67.5068 87.2776 67.5068 87.9868C67.5068 88.6964 68.0135 89.3046 68.7231 89.3046ZM81.5946 88.8989C81.5946 81.3989 75.412 75.2161 67.9121 75.2161V78.3584C73.6893 78.3584 78.4526 83.1217 78.4526 88.8985H81.5946V88.8989Z" fill="white" fill-opacity="0.8"/>
<path fill-rule="evenodd" clip-rule="evenodd" d="M92.1349 88.8987C92.1349 75.5201 81.2901 64.6757 67.9119 64.6757V67.8177C79.5673 67.8177 88.9929 77.2432 88.9929 88.8987H92.1349ZM112.81 88.8987C112.81 64.0675 92.743 44 67.9119 44V47.0406C91.0203 47.0406 109.77 65.7906 109.77 88.8987H112.81Z" fill="white" fill-opacity="0.8"/>
<path fill-rule="evenodd" clip-rule="evenodd" d="M102.473 88.8993C102.473 69.8453 86.9658 54.3386 67.9119 54.3386V57.3792C85.2431 57.3792 99.4323 71.5684 99.4323 88.8993H102.473Z" fill="white" fill-opacity="0.8"/>
</svg>
