<svg width="754" height="754" viewBox="0 0 754 754" fill="none" xmlns="http://www.w3.org/2000/svg">
<path fill-rule="evenodd" clip-rule="evenodd" d="M567.139 700.851C678.047 635.594 752.483 514.99 752.483 377C752.483 376.824 752.483 376.648 752.482 376.473H705.491L705.491 376.736C705.491 497.397 640.487 602.876 543.589 660.063L567.139 700.851ZM566.229 701.385L542.68 660.597C493.972 689.133 437.265 705.491 376.736 705.491C317.571 705.491 262.055 689.861 214.094 662.506L190.677 703.066C245.583 734.509 309.193 752.483 377 752.483C446.007 752.483 510.666 733.868 566.229 701.385ZM541.922 659.283C493.437 687.69 436.988 703.974 376.736 703.974C317.847 703.974 262.591 688.418 214.853 661.192L378.938 376.988L541.922 659.283ZM542.831 658.749L379.859 376.473H703.974L703.974 376.736C703.974 496.836 639.275 601.824 542.831 658.749ZM378.938 374.878L541.228 93.7842C492.899 65.6279 436.701 49.4989 376.736 49.4989C318.134 49.4989 263.129 64.9033 215.551 91.8837L378.938 374.878ZM214.792 90.5696C262.594 63.4601 317.858 47.9818 376.736 47.9818C436.978 47.9818 493.434 64.1847 541.987 92.4701L565.307 52.0779C509.951 19.9272 445.625 1.5171 377 1.5171C309.574 1.5171 246.299 19.2893 191.603 50.405L214.792 90.5696ZM190.687 50.9277L213.876 91.0913C115.131 147.512 48.4624 253.659 47.9844 375.418H1.52036C2.09328 236.51 78.095 115.4 190.687 50.9277ZM214.635 92.4054L378.032 375.418H49.5015C49.9795 254.221 116.343 148.564 214.635 92.4054ZM213.938 660.668L378.018 376.473H49.499L49.4989 376.736C49.4989 498.198 115.674 604.205 213.938 660.668ZM703.971 375.418H379.844L542.138 94.3165C638.612 150.939 703.499 255.582 703.971 375.418ZM705.488 375.418C705.016 255.021 639.824 149.888 542.897 93.0024L566.218 52.6088C677.211 117.491 751.912 237.708 752.48 375.418H705.488ZM189.762 702.541L213.179 661.982C114.462 605.256 47.9818 498.76 47.9818 376.736L47.9819 376.473H1.51746C1.51722 376.648 1.5171 376.824 1.5171 377C1.5171 516.189 77.2524 637.69 189.762 702.541ZM0.00324839 375.418H2.82322e-05V376.473H0.000360877C0.000120318 376.648 0 376.824 0 377C0 585.211 168.789 754 377 754C585.211 754 754 585.211 754 377C754 376.824 754 376.648 754 376.473H754V375.418H753.997C753.144 167.934 584.684 0 377 0C169.316 0 0.855548 167.934 0.00324839 375.418Z" fill="white" fill-opacity="0.2"/>
</svg>
