<svg width="180" height="148" viewBox="0 0 180 148" fill="none" xmlns="http://www.w3.org/2000/svg">
<path d="M26.007 80.2449V76.0654L29.7044 80.2315H32.864L28.5347 75.4182L32.8505 70.8206H29.9599L26.007 75.0137V70.8071H23.5869V80.2449H26.007Z" fill="white" fill-opacity="0.8"/>
<path d="M34.841 75.5261C34.841 73.7463 36.9115 72.7891 40.7569 72.7891H40.7838C44.6156 72.7891 46.6995 73.7463 46.6995 75.5261C46.6995 77.3057 44.629 78.263 40.7838 78.263H40.7569C36.9115 78.263 34.841 77.3057 34.841 75.5261ZM40.7838 80.4202C46.229 80.4202 49.4423 78.6001 49.4423 75.5261C49.4423 72.2902 46.5248 70.6318 40.7838 70.6318H40.7569C35.3116 70.6318 32.0982 72.452 32.0982 75.5261C32.0848 78.7754 35.0023 80.4202 40.7434 80.4202H40.7838Z" fill="white" fill-opacity="0.8"/>
<path d="M52.8573 74.6092V72.6004H54.4976C55.7211 72.6004 56.275 72.9105 56.275 73.5981C56.275 74.2857 55.7211 74.6092 54.4976 74.6092H52.8573ZM52.8573 78.4518V76.4429H54.5648C55.8152 76.4429 56.3664 76.753 56.3664 77.4541C56.3664 78.1552 55.8287 78.4518 54.5648 78.4518H52.8573ZM50.499 80.2449H54.9924C57.4635 80.2449 58.757 79.3686 58.757 77.6832C58.757 76.6047 58.152 75.8631 56.9796 75.5261C58.0954 75.1621 58.6601 74.4474 58.6601 73.3688C58.6601 71.6835 57.3694 70.8071 54.8956 70.8071H50.499V80.2449Z" fill="white" fill-opacity="0.8"/>
<path d="M64.7291 76.4429L67.6601 72.8295L70.5939 76.4563L64.7291 76.4429ZM58.5659 80.2449H61.6583L63.07 78.4922H72.2503L73.6754 80.2449H76.8512L69.1875 70.8071H66.2296L58.5659 80.2449Z" fill="white" fill-opacity="0.8"/>
<path d="M77.1201 80.2449H77.5234C80.0484 80.2449 81.4494 79.2203 81.4494 75.1755V72.9644H84.0712V80.2449H86.4913V70.8071H79.1207V74.825C79.1207 77.5214 78.8249 78.0607 77.5234 78.0607H77.1201V80.2449Z" fill="white" fill-opacity="0.8"/>
<path d="M90.8796 78.1552V75.8092H97.2257C99.2692 75.8092 99.9981 76.1058 99.9981 76.9822C99.9981 77.8585 99.2692 78.1552 97.2257 78.1552H90.8796ZM88.2578 80.2449H97.1181C101.046 80.2449 102.687 79.045 102.687 76.8473C102.687 74.8519 101.031 73.7194 97.1181 73.7194H90.8796V70.8071H88.2578V80.2449Z" fill="white" fill-opacity="0.8"/>
<path d="M112.325 80.2449H112.744V78.1282H111.695C108.2 78.1282 106.317 77.2653 106.317 75.5261C106.317 73.7868 108.2 72.9105 111.695 72.9105H112.744V70.8071H112.325C106.812 70.8071 103.561 72.5599 103.561 75.5261C103.561 78.654 106.519 80.2449 112.325 80.2449Z" fill="white" fill-opacity="0.8"/>
<path d="M116.38 78.1552V75.8092H122.726C124.767 75.8092 125.493 76.1058 125.493 76.9822C125.493 77.8585 124.767 78.1552 122.726 78.1552H116.38ZM113.758 80.2449H122.616C126.542 80.2449 128.182 79.045 128.182 76.8473C128.182 74.8519 126.531 73.7194 122.616 73.7194H116.38V70.8071H113.758V80.2449Z" fill="white" fill-opacity="0.8"/>
<path d="M131.833 80.2449V76.0654L135.531 80.2315H138.691L134.361 75.4182L138.677 70.8206H135.786L131.833 75.0137V70.8071H129.414V80.2449H131.833Z" fill="white" fill-opacity="0.8"/>
<path d="M144.883 76.4429L147.819 72.8295L150.753 76.4563L144.883 76.4429ZM138.714 80.2449H141.807L143.218 78.4922H152.412L153.84 80.2449H157.013L149.349 70.8071H146.392L138.714 80.2449Z" fill="white" fill-opacity="0.8"/>
<path d="M48.841 49H48.8286C37.7993 49 31.811 52.3496 31.811 58.5509C31.811 64.6747 37.8252 67.9973 48.8286 67.9973H48.841V49Z" fill="white" fill-opacity="0.8"/>
<path d="M30.8935 66.9597C25.6533 65.592 23 62.7473 23 58.451C23 58.4366 23 58.4221 23.0001 58.4077C23.0001 54.3935 25.8247 51.4808 30.8935 50.0044V66.9597Z" fill="white" fill-opacity="0.8"/>
</svg>
