<svg width="26" height="26" viewBox="0 0 26 26" fill="none" xmlns="http://www.w3.org/2000/svg">
<path d="M9.35513 0.12328C9.44669 0.181764 9.52655 0.258917 9.59015 0.35033C9.65376 0.441744 9.69985 0.545628 9.72581 0.656048C9.75176 0.766467 9.75707 0.88126 9.74142 0.993867C9.72578 1.10648 9.68949 1.21469 9.63462 1.31234L5.49738 8.66681H20.5026L16.3638 1.31234C16.253 1.11512 16.2202 0.879055 16.2726 0.656063C16.325 0.433072 16.4584 0.241424 16.6432 0.12328C16.8281 0.00513549 17.0495 -0.029827 17.2585 0.0260834C17.4676 0.0819938 17.6472 0.224197 17.758 0.421411L22.3974 8.66681H25.1875C25.403 8.66681 25.6097 8.75812 25.762 8.92065C25.9144 9.08318 26 9.30362 26 9.53347V11.2668C26 11.4966 25.9144 11.7171 25.762 11.8796C25.6097 12.0421 25.403 12.1334 25.1875 12.1334H0.8125C0.597012 12.1334 0.390349 12.0421 0.237976 11.8796C0.0856024 11.7171 0 11.4966 0 11.2668V9.53347C0 9.30362 0.0856024 9.08318 0.237976 8.92065C0.390349 8.75812 0.597012 8.66681 0.8125 8.66681H3.60262L8.23875 0.421411C8.29358 0.323745 8.36591 0.238558 8.45161 0.170716C8.53731 0.102874 8.6347 0.053706 8.73822 0.0260206C8.84174 -0.00166485 8.94936 -0.00732509 9.05493 0.00936286C9.1605 0.0260508 9.26358 0.06476 9.35513 0.12328ZM5.51525 24.2667L3.11025 13.8668H1.534L4.01213 25.0051C4.0763 25.2886 4.22802 25.5409 4.44289 25.7214C4.65775 25.9018 4.92327 26 5.19675 26H20.8065C21.0803 26.0004 21.3462 25.9024 21.5613 25.7219C21.7765 25.5414 21.9285 25.2889 21.9928 25.0051L24.466 13.8668H22.8865L20.4831 24.2667H5.51525Z" fill="white"/>
</svg>
