<svg width="30" height="30" viewBox="0 0 30 30" fill="none" xmlns="http://www.w3.org/2000/svg">
<path d="M12.4893 17.4777C12.4893 18.7701 11.5518 19.1786 10.4 19.1786H7.37995V15.6362H10.4603C11.7058 15.6429 12.4893 16.1585 12.4893 17.4777ZM11.9737 11.9665C11.9737 10.7812 11.0563 10.5 10.0384 10.5H7.38665V13.5H10.246C11.2572 13.5 11.9737 13.058 11.9737 11.9665ZM20.8331 13.5201C19.6076 13.5201 18.7907 14.2835 18.7103 15.5089H22.8755C22.7616 14.2701 22.1188 13.5201 20.8331 13.5201ZM30.0005 3.21429V26.7857C30.0005 28.5603 28.5608 30 26.7862 30H3.21477C1.44022 30 0.000488281 28.5603 0.000488281 26.7857V3.21429C0.000488281 1.43973 1.44022 0 3.21477 0H26.7862C28.5608 0 30.0005 1.43973 30.0005 3.21429ZM18.1947 10.2455H23.4045V8.97991H18.1947V10.2455ZM15.3152 17.6317C15.3152 16.0179 14.5518 14.625 12.9715 14.1763C14.1233 13.6272 14.7259 12.9911 14.7259 11.6987C14.7259 9.14062 12.8175 8.51786 10.6143 8.51786H4.55406V21.375H10.7884C13.1255 21.3616 15.3152 20.2433 15.3152 17.6317ZM25.4469 16.6406C25.4469 13.8884 23.8331 11.5915 20.9201 11.5915C18.0808 11.5915 16.159 13.721 16.159 16.5201C16.159 19.4196 17.9871 21.4085 20.9201 21.4085C23.1433 21.4085 24.5831 20.4107 25.2795 18.2746H23.0228C22.775 19.0714 21.7773 19.4866 21.0005 19.4866C19.5005 19.4866 18.717 18.6094 18.717 17.1228H25.4268C25.4335 16.9688 25.4469 16.8013 25.4469 16.6406Z" fill="white"/>
</svg>
