<svg width="19" height="26" viewBox="0 0 19 26" fill="none" xmlns="http://www.w3.org/2000/svg">
<path d="M11.3548 0.270874C10.3387 0.270874 9.51438 1.09279 9.51438 2.10678V7.0144H13.1975V2.10678C13.1975 1.09279 12.3732 0.270874 11.3548 0.270874Z" fill="#008237"/>
<path d="M8.4525 3.05632V7.57783C8.094 7.77659 7.84967 8.54981 7.84967 8.98872V9.89929C7.52314 10.1959 7.08701 10.3768 6.60978 10.3768C5.59365 10.3768 4.76934 9.55485 4.76934 8.541V3.05632C4.76934 2.04233 5.59365 1.22041 6.60978 1.22041C7.62818 1.22041 8.4525 2.04233 8.4525 3.05632Z" fill="#008237"/>
<path d="M17.9682 7.0548V3.05632C17.9682 2.04233 17.1439 1.22041 16.1255 1.22041C15.1094 1.22041 14.285 2.04233 14.285 3.05632V7.0144H17.5321C17.6805 7.0144 17.8266 7.0282 17.9682 7.0548Z" fill="#008237"/>
<path d="M1.84044 2.81431C0.824315 2.81431 0 3.63623 0 4.65022V8.541C0 9.55485 0.824315 10.3768 1.84044 10.3768C2.85884 10.3768 3.68316 9.55485 3.68316 8.541V4.65022C3.68316 3.63623 2.85884 2.81431 1.84044 2.81431Z" fill="#008237"/>
<path d="M14.8833 24.7292C14.8833 25.2815 14.4356 25.7292 13.8833 25.7292H4.02553C3.47325 25.7292 3.02553 25.2815 3.02553 24.7292V21.2284L3.01396 21.2104C3.01396 20.0398 2.0687 19.069 1.35416 18.3351C1.28593 18.265 1.21979 18.1971 1.1568 18.1314C0.434038 17.3773 0.152989 16.6866 0.152989 15.4409V11.4386C0.576985 11.8682 1.16697 12.1346 1.81989 12.1346H2.16925C3.12144 12.1346 3.94118 11.5656 4.30653 10.7498C4.66959 11.5656 5.49163 12.1346 6.4461 12.1346H6.79546C7.30991 12.1346 7.78587 11.9686 8.17224 11.6874C8.54101 12.4966 9.20998 13.1409 10.0374 13.4791C10.0023 13.5059 9.96739 13.5332 9.93271 13.5609C8.6509 14.5867 7.65458 16.2474 7.72363 18.6453C7.73752 19.1278 8.1412 19.5078 8.62526 19.4939C9.10932 19.4801 9.49047 19.0777 9.47657 18.5951C9.424 16.7691 10.1576 15.6228 11.0305 14.9243C11.5816 14.4832 12.1897 14.2197 12.7076 14.0877C13.1708 13.9696 13.5835 13.5835 13.5901 13.1055C13.5966 12.6405 13.2215 12.2601 12.7564 12.2601H11.6326C10.3413 12.2601 9.2944 11.2164 9.2944 9.92905C9.2944 9.10702 9.97334 8.49121 11.0114 8.49121H16.1877C17.379 8.49121 18.4604 9.26586 18.4604 10.6916C18.4423 12.2901 18.4321 13.4648 18.4767 14.2661L18.4809 14.3408C18.551 15.5919 18.6023 16.5079 17.6862 17.5617C17.426 17.8611 17.0933 18.1715 16.7486 18.4931C15.856 19.3261 14.8833 20.2336 14.8833 21.2157V24.7292Z" fill="#008237"/>
</svg>
