<svg width="22" height="21" viewBox="0 0 22 21" fill="none" xmlns="http://www.w3.org/2000/svg">
<path d="M10.7773 1.75C5.82515 1.75 1.79626 5.67525 1.79626 10.5C1.79626 15.3247 5.82515 19.25 10.7773 19.25C15.7294 19.25 19.7583 15.3247 19.7583 10.5C19.7583 5.67525 15.7294 1.75 10.7773 1.75ZM10.7773 17.5C6.81576 17.5 3.59247 14.3596 3.59247 10.5C3.59247 6.64038 6.81576 3.5 10.7773 3.5C14.7388 3.5 17.9621 6.64038 17.9621 10.5C17.9621 14.3596 14.7388 17.5 10.7773 17.5Z" fill="#008237"/>
<path d="M11.6754 6.125H9.87915V10.8622L12.8366 13.7436L14.1065 12.5064L11.6754 10.1378V6.125Z" fill="#008237"/>
</svg>
