<svg width="30" height="30" viewBox="0 0 30 30" fill="none" xmlns="http://www.w3.org/2000/svg">
<path d="M4.62939 25.1172H9.14111V11.5625H4.62939V25.1172ZM9.43408 7.38281C9.42106 6.70573 9.18669 6.14583 8.73096 5.70312C8.27523 5.26042 7.66976 5.03906 6.91455 5.03906C6.15934 5.03906 5.54411 5.26042 5.06885 5.70312C4.59359 6.14583 4.35596 6.70573 4.35596 7.38281C4.35596 8.04688 4.58708 8.60352 5.04932 9.05273C5.51156 9.50195 6.11377 9.72656 6.85596 9.72656H6.87549C7.64372 9.72656 8.26221 9.50195 8.73096 9.05273C9.19971 8.60352 9.43408 8.04688 9.43408 7.38281ZM20.8599 25.1172H25.3716V17.3438C25.3716 15.3385 24.8963 13.8216 23.9458 12.793C22.9953 11.7643 21.7388 11.25 20.1763 11.25C18.4054 11.25 17.0448 12.0117 16.0942 13.5352H16.1333V11.5625H11.6216C11.6606 12.4219 11.6606 16.9401 11.6216 25.1172H16.1333V17.5391C16.1333 17.0443 16.1789 16.6797 16.27 16.4453C16.4653 15.9896 16.7583 15.6022 17.1489 15.2832C17.5396 14.9642 18.0213 14.8047 18.5942 14.8047C20.1047 14.8047 20.8599 15.8268 20.8599 17.8711V25.1172ZM30.0005 5.625V24.375C30.0005 25.9245 29.4504 27.2493 28.3501 28.3496C27.2498 29.4499 25.925 30 24.3755 30H5.62549C4.07601 30 2.75114 29.4499 1.65088 28.3496C0.550619 27.2493 0.000488281 25.9245 0.000488281 24.375V5.625C0.000488281 4.07552 0.550619 2.75065 1.65088 1.65039C2.75114 0.55013 4.07601 0 5.62549 0H24.3755C25.925 0 27.2498 0.55013 28.3501 1.65039C29.4504 2.75065 30.0005 4.07552 30.0005 5.625Z" fill="white"/>
</svg>
