<svg width="30" height="30" viewBox="0 0 30 30" fill="none" xmlns="http://www.w3.org/2000/svg">
<path d="M24.3755 0C25.925 0 27.2498 0.55013 28.3501 1.65039C29.4504 2.75065 30.0005 4.07552 30.0005 5.625V24.375C30.0005 25.9245 29.4504 27.2493 28.3501 28.3496C27.2498 29.4499 25.925 30 24.3755 30H10.2153C11.3221 28.4115 12.0252 27.0443 12.3247 25.8984C12.4419 25.4557 12.7869 24.0951 13.3599 21.8164C13.6333 22.3242 14.1118 22.7604 14.7954 23.125C15.479 23.4896 16.2114 23.6719 16.9927 23.6719C19.3494 23.6719 21.2733 22.7116 22.7642 20.791C24.255 18.8704 25.0005 16.4388 25.0005 13.4961C25.0005 12.4023 24.7726 11.3444 24.3169 10.3223C23.8612 9.30013 23.2329 8.39518 22.4321 7.60742C21.6313 6.81966 20.6385 6.18815 19.4536 5.71289C18.2687 5.23763 16.9862 5 15.606 5C14.2518 5 12.9855 5.18555 11.8071 5.55664C10.6287 5.92773 9.63265 6.42578 8.81885 7.05078C8.00505 7.67578 7.30518 8.38867 6.71924 9.18945C6.1333 9.99023 5.70036 10.8236 5.42041 11.6895C5.14046 12.5553 5.00049 13.418 5.00049 14.2773C5.00049 15.6055 5.25765 16.7773 5.77197 17.793C6.2863 18.8086 7.04476 19.5247 8.04736 19.9414C8.21663 20.0065 8.36963 20.0065 8.50635 19.9414C8.64307 19.8763 8.73747 19.7526 8.78955 19.5703C8.91976 18.9974 9.01742 18.6003 9.08252 18.3789C9.16064 18.0794 9.08903 17.806 8.86768 17.5586C8.21663 16.7513 7.89111 15.7747 7.89111 14.6289C7.89111 12.6758 8.56494 11.0059 9.9126 9.61914C11.2603 8.23242 13.0213 7.53906 15.1958 7.53906C17.1359 7.53906 18.6496 8.06641 19.7368 9.12109C20.8241 10.1758 21.3677 11.543 21.3677 13.2227C21.3677 15.4102 20.9282 17.2721 20.0493 18.8086C19.1704 20.3451 18.0409 21.1133 16.6606 21.1133C15.8794 21.1133 15.2479 20.8301 14.7661 20.2637C14.2843 19.6973 14.1346 19.0234 14.3169 18.2422C14.4211 17.7995 14.5936 17.1973 14.8345 16.4355C15.0754 15.6738 15.2674 15.0098 15.4106 14.4434C15.5539 13.877 15.6255 13.3919 15.6255 12.9883C15.6255 12.3503 15.453 11.8197 15.1079 11.3965C14.7629 10.9733 14.2713 10.7617 13.6333 10.7617C12.839 10.7617 12.1652 11.1296 11.6118 11.8652C11.0584 12.6009 10.7817 13.5091 10.7817 14.5898C10.7817 15.5273 10.938 16.3151 11.2505 16.9531L9.33643 25.0391C9.02393 26.3411 8.97835 27.9948 9.19971 30H5.62549C4.07601 30 2.75114 29.4499 1.65088 28.3496C0.550619 27.2493 0.000488281 25.9245 0.000488281 24.375V5.625C0.000488281 4.07552 0.550619 2.75065 1.65088 1.65039C2.75114 0.55013 4.07601 0 5.62549 0H24.3755Z" fill="white"/>
</svg>
