<svg width="16" height="15" viewBox="0 0 16 15" fill="none" xmlns="http://www.w3.org/2000/svg">
<path d="M7.09182 0.795084C7.37768 -0.084689 8.62232 -0.0846888 8.90818 0.795085L10.0307 4.25C10.1586 4.64345 10.5252 4.90983 10.9389 4.90983H14.5716C15.4967 4.90983 15.8813 6.09356 15.1329 6.63729L12.194 8.77254C11.8593 9.01571 11.7193 9.44672 11.8471 9.84017L12.9697 13.2951C13.2555 14.1749 12.2486 14.9064 11.5002 14.3627L8.56129 12.2275C8.2266 11.9843 7.7734 11.9843 7.43871 12.2275L4.49979 14.3627C3.75141 14.9064 2.74447 14.1749 3.03033 13.2951L4.1529 9.84017C4.28073 9.44672 4.14069 9.01571 3.806 8.77254L0.867076 6.63729C0.118696 6.09356 0.503313 4.90983 1.42836 4.90983H5.06107C5.47477 4.90983 5.84141 4.64345 5.96925 4.25L7.09182 0.795084Z" fill="#008237"/>
</svg>
