<svg width="30" height="30" viewBox="0 0 30 30" fill="none" xmlns="http://www.w3.org/2000/svg">
<path d="M12.9964 23.4965C12.7064 23.9065 12.4318 24.1086 12.1693 24.1086C11.9943 24.1086 11.8948 24.0061 11.8631 23.8028C11.8506 23.7607 11.8506 23.6011 11.8506 23.2944V17.9778H10.5431V23.6878C10.5431 24.1982 10.5864 24.5423 10.6585 24.7611C10.7889 25.1269 11.0798 25.2982 11.5014 25.2982C11.9823 25.2982 12.4764 25.0078 12.996 24.4111V25.199H14.3056V17.9782H12.9964V23.4965ZM5.79102 16.8719H7.33018V25.199H8.78518V16.8719H10.3527V15.5078H5.79102V16.8719ZM14.701 10.5586C15.1273 10.5586 15.3314 10.2211 15.3314 9.54568V6.47568C15.3314 5.80109 15.1273 5.46484 14.701 5.46484C14.2743 5.46484 14.0698 5.80109 14.0698 6.47568V9.54568C14.0702 10.2207 14.2743 10.5586 14.701 10.5586ZM18.0981 17.8898C17.6173 17.8898 17.1689 18.1532 16.7469 18.6732V15.5078H15.4381V25.199H16.7469V24.4982C17.1835 25.0394 17.6331 25.2982 18.0981 25.2982C18.6193 25.2982 18.9693 25.024 19.1443 24.4869C19.2314 24.1807 19.276 23.6998 19.276 23.0319V20.1565C19.276 19.4732 19.2314 18.9957 19.1443 18.7053C18.9689 18.164 18.6193 17.8898 18.0981 17.8898ZM17.9677 23.1344C17.9677 23.7865 17.7756 24.1082 17.3985 24.1082C17.1835 24.1082 16.9652 24.0057 16.7464 23.7869V19.3853C16.9652 19.1698 17.1831 19.0673 17.3985 19.0673C17.776 19.0673 17.9677 19.4015 17.9677 20.0528V23.1344ZM22.2652 17.8898C21.5977 17.8898 21.076 18.1361 20.6985 18.6307C20.4202 18.9953 20.2939 19.5594 20.2939 20.3307V22.8607C20.2939 23.6273 20.4364 24.1978 20.7143 24.5582C21.0923 25.0511 21.6131 25.2978 22.2981 25.2978C22.9814 25.2978 23.5177 25.039 23.8802 24.5157C24.04 24.2806 24.1444 24.0124 24.1856 23.7311C24.1973 23.5998 24.2135 23.309 24.2135 22.8882V22.6965H22.8781C22.8781 23.2215 22.8618 23.5119 22.8498 23.5832C22.7752 23.9328 22.5868 24.1078 22.2652 24.1078C21.816 24.1078 21.5977 23.7744 21.5977 23.1061V21.8261H24.2139V20.3303C24.2139 19.5586 24.0827 18.9948 23.8089 18.6303C23.4427 18.1357 22.9218 17.8898 22.2652 17.8898ZM22.9056 20.7373H21.5977V20.0694C21.5977 19.4019 21.816 19.0678 22.2535 19.0678C22.6864 19.0678 22.9056 19.4019 22.9056 20.0694V20.7373Z" fill="white"/>
<path d="M27.0838 0H2.91715C1.31299 0 0.000488281 1.3125 0.000488281 2.91667V27.0833C0.000488281 28.6875 1.31299 30 2.91715 30H27.0838C28.688 30 30.0005 28.6875 30.0005 27.0833V2.91667C30.0005 1.3125 28.688 0 27.0838 0ZM17.7422 4.3625H19.0601V9.73417C19.0601 10.045 19.0601 10.2063 19.0763 10.2487C19.1055 10.4537 19.2088 10.5583 19.3863 10.5583C19.6505 10.5583 19.9284 10.3533 20.2213 9.93917V4.3625H21.5438V11.6583H20.2213V10.8625C19.6951 11.4662 19.193 11.7596 18.7109 11.7596C18.2851 11.7596 17.9913 11.5867 17.8592 11.2167C17.7863 10.9962 17.7422 10.6467 17.7422 10.1317V4.3625ZM12.7476 6.74083C12.7476 5.96125 12.8805 5.39083 13.1617 5.02208C13.5276 4.52375 14.0426 4.27417 14.7009 4.27417C15.3634 4.27417 15.8776 4.52375 16.2438 5.02208C16.5205 5.39083 16.6542 5.96125 16.6542 6.74083V9.29708C16.6542 10.0721 16.5209 10.6471 16.2438 11.0133C15.8776 11.5104 15.3638 11.76 14.7009 11.76C14.0422 11.76 13.5272 11.5104 13.1617 11.0133C12.8805 10.6471 12.7476 10.0721 12.7476 9.29708V6.74083ZM9.21174 1.8675L10.253 5.71208L11.2526 1.8675H12.7351L10.9717 7.69333V11.6583H9.50507V7.69333C9.37257 6.99 9.07924 5.96083 8.60924 4.59542C8.30007 3.68708 7.97799 2.77458 7.66924 1.8675H9.21174ZM25.4476 25.6325C25.1834 26.7837 24.2409 27.6329 23.1076 27.7592C20.4226 28.0592 17.7055 28.0608 15.0005 28.0592C12.2951 28.0608 9.57799 28.0592 6.8934 27.7592C5.75965 27.6325 4.81882 26.7833 4.55424 25.6325C4.17716 23.9925 4.17716 22.2025 4.17716 20.515C4.17716 18.8258 4.18132 17.0371 4.55882 15.3967C4.82299 14.2458 5.76424 13.3971 6.89799 13.2704C9.58257 12.9696 12.2997 12.9687 15.0051 12.9696C17.7101 12.9687 20.4272 12.9696 23.1122 13.2704C24.2451 13.3971 25.1872 14.2458 25.4517 15.3967C25.8288 17.0375 25.8267 18.8258 25.8267 20.515C25.8272 22.2025 25.8251 23.9925 25.4476 25.6325Z" fill="white"/>
</svg>
