<svg width="132" height="23" viewBox="0 0 132 23" fill="none" xmlns="http://www.w3.org/2000/svg">
<mask id="mask0_11_1077" style="mask-type:luminance" maskUnits="userSpaceOnUse" x="29" y="1" width="104" height="20">
<path d="M29.7496 1.3361V4.28114H35.9031V20.0477H39.3593V4.26487H45.5128V1.3361H29.7496ZM72.2907 4.26487H76.3284C77.8304 4.26487 78.9771 4.59029 79.7524 5.22486C80.5276 5.85943 80.9152 6.78688 80.9152 7.97466C80.9152 9.16244 80.5276 10.0899 79.7524 10.7245C78.9771 11.359 77.8304 11.6844 76.3284 11.6844H72.2907V4.26487ZM68.8506 1.3361V20.0477H72.2907V14.6458H76.4738C78.0889 14.6458 79.4778 14.3854 80.673 13.8485C81.8681 13.3115 82.7887 12.5468 83.4186 11.538C84.0485 10.5292 84.3715 9.35769 84.3715 7.99093C84.3715 6.62417 84.0485 5.43638 83.4186 4.44385C82.7887 3.45132 81.8681 2.68659 80.673 2.14964C79.4778 1.6127 78.0727 1.35237 76.4738 1.35237H68.8506V1.3361ZM87.5371 20.0315H90.9772V1.31982H87.5371V20.0315ZM104.124 4.80182L107.629 12.9861H100.651L104.124 4.80182ZM102.46 1.3361L94.1104 20.0477H97.6636L99.4886 15.7196H108.775L110.633 20.0477H114.234L105.852 1.3361H102.46ZM119.612 4.26487H123.65C125.152 4.26487 126.299 4.59029 127.074 5.22486C127.849 5.85943 128.237 6.78688 128.237 7.97466C128.237 9.16244 127.849 10.0899 127.074 10.7407C126.299 11.3916 125.152 11.717 123.65 11.717H119.612V4.26487ZM116.156 1.3361V20.0477H119.596V14.5969H123.779C124.102 14.5969 124.328 14.5807 124.49 14.5644L128.285 20.0477H132L127.736 13.8973C129.012 13.3929 129.981 12.6444 130.66 11.6194C131.338 10.6106 131.677 9.39023 131.677 7.99093C131.677 6.62417 131.354 5.43638 130.724 4.44385C130.094 3.45132 129.174 2.68659 127.979 2.14964C126.783 1.6127 125.378 1.35237 123.779 1.35237H116.156V1.3361Z" fill="white"/>
</mask>
<g mask="url(#mask0_11_1077)">
<path d="M137.475 -0.307373H-5.37854V21.3493H137.475V-0.307373Z" fill="white"/>
</g>
<mask id="mask1_11_1077" style="mask-type:luminance" maskUnits="userSpaceOnUse" x="46" y="1" width="21" height="20">
<path d="M52.8613 16.4192C51.8761 15.866 51.1008 15.0687 50.5194 14.0599C49.9541 13.0511 49.6634 11.9284 49.6634 10.6755C49.6634 9.42266 49.9541 8.29997 50.5194 7.29117C51.0847 6.28236 51.8599 5.50136 52.8613 4.93187C53.8465 4.37866 54.9609 4.08578 56.2045 4.08578C57.4481 4.08578 58.5625 4.36239 59.5477 4.93187C60.5329 5.48509 61.3081 6.28236 61.8895 7.29117C62.4548 8.29997 62.7455 9.42266 62.7455 10.6755C62.7455 11.9284 62.4548 13.0511 61.8895 14.0599C61.3243 15.0687 60.549 15.8497 59.5477 16.4192C58.5625 16.9724 57.4481 17.2653 56.2045 17.2653C54.9609 17.249 53.8465 16.9724 52.8613 16.4192ZM51.0847 2.31224C49.5665 3.14206 48.3714 4.2973 47.4992 5.76169C46.6271 7.22608 46.2072 8.86945 46.2072 10.6918C46.2072 12.5142 46.6432 14.1575 47.4992 15.6219C48.3714 17.0863 49.5665 18.2415 51.0847 19.0714C52.6029 19.9012 54.3148 20.308 56.2045 20.308C58.0941 20.308 59.8061 19.9012 61.3243 19.0714C62.8424 18.2415 64.0376 17.1026 64.9097 15.6382C65.7819 14.1738 66.2018 12.5304 66.2018 10.6918C66.2018 8.85318 65.7657 7.20981 64.9097 5.74542C64.0376 4.28103 62.8424 3.14206 61.3243 2.31224C59.8061 1.48242 58.0941 1.07565 56.2045 1.07565C54.3148 1.05938 52.6029 1.48242 51.0847 2.31224Z" fill="white"/>
</mask>
<g mask="url(#mask1_11_1077)">
<path d="M68.3655 -2.81299H39.8271V26.3284H68.3655V-2.81299Z" fill="white"/>
</g>
<mask id="mask2_11_1077" style="mask-type:luminance" maskUnits="userSpaceOnUse" x="13" y="0" width="13" height="19">
<path d="M16.0858 0H13.4048H13.0818L13.0979 0.32542C13.6148 7.69618 17.394 14.3185 23.4667 18.5001L23.7413 18.6791L23.9028 18.4025L25.2433 16.0595L25.3887 15.8154L25.1626 15.6527C20.0751 12.0893 16.8772 6.47585 16.3927 0.276607L16.3765 0H16.0858Z" fill="white"/>
</mask>
<g mask="url(#mask2_11_1077)">
<path d="M137.474 -3.823H-5.37915V25.4322H137.474V-3.823Z" fill="white"/>
</g>
<mask id="mask3_11_1077" style="mask-type:luminance" maskUnits="userSpaceOnUse" x="2" y="16" width="22" height="7">
<path d="M2.29303 19.1828L2.00232 19.3292L2.16383 19.6058L3.50434 21.9488L3.6497 22.1929L3.90811 22.079C6.66989 20.761 9.62548 20.0939 12.7103 20.0939C15.7789 20.0939 18.7507 20.761 21.5124 22.079L21.7709 22.1929L21.9162 21.9488L23.2567 19.6058L23.4182 19.3292L23.1275 19.1828C19.8651 17.5882 16.3765 16.7747 12.7264 16.7747C9.04405 16.7747 5.55549 17.5882 2.29303 19.1828Z" fill="white"/>
</mask>
<g mask="url(#mask3_11_1077)">
<path d="M23.3859 16.7751H2.00232V22.1771H23.3859V16.7751Z" fill="#EF7D00"/>
</g>
<mask id="mask4_11_1077" style="mask-type:luminance" maskUnits="userSpaceOnUse" x="0" y="0" width="13" height="19">
<path d="M11.9677 0H9.28669H9.01213L8.99598 0.276607C8.51145 6.49212 5.3136 12.0893 0.226111 15.6527L0 15.8154L0.145357 16.0595L1.48587 18.4025L1.64738 18.6791L1.92194 18.5001C8.01078 14.3347 11.7901 7.69618 12.2907 0.32542L12.3069 0H11.9677Z" fill="white"/>
</mask>
<g mask="url(#mask4_11_1077)">
<path d="M137.475 -3.823H-5.37866V25.4322H137.475V-3.823Z" fill="white"/>
</g>
</svg>
